<svg width="45" height="43" viewBox="0 0 45 43" fill="none" xmlns="http://www.w3.org/2000/svg">
<g clip-path="url(#clip0_71_42)">
<path d="M22.4615 6.29489C22.6893 6.27642 23.0433 6.54115 23.2249 6.68274L40.432 23.1787L40.4935 39.3084C40.3212 40.8075 39.1822 41.8756 37.6801 42.0142C34.7835 42.2789 31.4929 41.8018 28.5533 42.0142C27.8976 42.0326 27.3066 41.5524 27.0911 40.9583C26.7402 36.5288 27.0388 32.0162 26.9372 27.559C26.8664 27.1835 26.5001 27.0542 26.1615 27.0142C24.6316 26.8387 20.3653 26.8356 18.8385 27.0142C18.5461 27.048 18.3029 27.1311 18.1213 27.3774L18.0597 40.2688C17.9581 41.2692 17.481 41.9157 16.4467 42.0142C13.4917 42.2912 10.0995 41.8048 7.09522 41.9988C5.63308 41.7156 4.63267 40.7029 4.50339 39.1945L4.57111 23.1818L21.7782 6.68582C21.9413 6.55962 22.2707 6.31336 22.4615 6.29797V6.29489Z" fill="#030304"/>
<path d="M29.9384 5.90703V3.08741C29.9384 2.52102 30.3878 1.89 30.9111 1.66221C31.5883 1.36363 34.8851 1.38517 35.7562 1.47136C36.6273 1.55755 37.3538 1.91154 37.5015 2.84731L37.5231 13.1408L44.7507 20.1867C45.5572 21.4826 44.3013 22.9294 42.8945 22.403C36.1102 16.222 29.5937 9.70551 22.8648 3.45371H22.1475L2.34557 22.2737C0.929608 23.1295 -0.61872 21.5996 0.255485 20.1837C0.560225 19.6942 1.90539 18.5122 2.40714 18.0166C7.81859 12.6821 13.5502 7.15061 19.1402 2.00697C20.6854 0.584845 21.9813 -0.784947 24.2192 0.529438L29.9354 5.90703H29.9384Z" fill="#070708"/>
</g>
<defs>
<clipPath id="clip0_71_42">
<rect width="45" height="42.1034" fill="white"/>
</clipPath>
</defs>
</svg>
