<svg width="45" height="45" viewBox="0 0 45 45" fill="currentColor" xmlns="http://www.w3.org/2000/svg">
<g clip-path="url(#clip0_66_96)">
<path d="M22.678 44.4512C19.0615 44.4363 15.6477 43.6131 12.4515 41.9097C12.0658 41.7045 11.7321 41.6699 11.297 41.8108C8.01918 42.859 4.7265 43.8603 1.44618 44.9011C1.01358 45.0396 0.642781 45.0667 0.299175 44.7627C-0.0592624 44.4437 -0.0419585 44.0333 0.0841127 43.6229C0.521654 42.2138 0.969083 40.807 1.41157 39.3979C2.01968 37.4621 2.62531 35.5263 3.23589 33.5905C3.3496 33.2321 3.27792 32.928 3.10488 32.5942C0.798516 28.1689 -0.0320705 23.4642 0.862788 18.5642C2.27676 10.8408 6.62004 5.2659 13.7492 1.97533C18.2532 -0.10384 22.9994 -0.536485 27.8247 0.652671C35.473 2.53653 40.7161 7.25359 43.5762 14.5443C45.1261 18.4925 45.3956 22.6261 44.4636 26.7795C42.711 34.6116 38.0093 39.9764 30.628 43.0222C28.3414 43.9641 25.3972 44.461 22.6756 44.4512H22.678ZM22.6261 4.08416C21.494 4.04708 20.1616 4.14844 18.8588 4.455C14.2362 5.54032 10.4986 7.98785 7.79918 11.9064C4.89707 16.1166 3.96266 20.7694 4.90943 25.798C5.33955 28.0873 6.24183 30.1862 7.47287 32.1467C7.68546 32.483 7.68547 32.7599 7.56928 33.1233C6.95623 35.0146 6.37037 36.9157 5.77956 38.8144C5.7326 38.9652 5.63125 39.1432 5.77956 39.2743C5.90811 39.3855 6.04654 39.2495 6.17755 39.21C7.99693 38.6438 9.82126 38.09 11.6308 37.4967C12.182 37.3162 12.622 37.3731 13.1263 37.6772C18.3101 40.8021 23.7534 41.3089 29.4167 39.1754C38.432 35.7785 43.193 25.3381 39.9251 16.1809C37.3938 9.08801 30.5439 3.98774 22.6237 4.08416H22.6261Z" fill="white"/>
<path d="M27.8964 16.1883C30.0717 16.1636 32.1309 17.8744 32.5882 20.0821C33.5201 24.6014 30.3411 28.6609 25.7185 28.8562C25.2365 28.8759 24.794 28.8438 24.6383 28.2826C24.4949 27.7659 24.8014 27.489 25.1994 27.2492C26.208 26.646 26.9867 25.8227 27.528 24.772C27.7283 24.3814 27.7802 24.1737 27.2141 24.0872C25.0486 23.7534 23.5753 21.9067 23.7311 19.7929C23.8744 17.8324 25.7482 16.2106 27.8939 16.1859L27.8964 16.1883Z" fill="white"/>
<path d="M21.7609 21.5086C21.7708 25.5879 18.5522 28.8216 14.5971 28.8784C14.1496 28.8858 13.764 28.7573 13.6305 28.29C13.497 27.8252 13.7442 27.5162 14.1373 27.2863C15.1706 26.6855 15.9814 25.8648 16.5302 24.7943C16.7279 24.4111 16.8046 24.1688 16.1866 24.0823C14.1595 23.7979 12.6393 21.9611 12.7381 20.0129C12.842 17.9708 14.5353 16.307 16.6192 16.1982C19.2098 16.0623 21.4667 18.0796 21.7213 20.7645C21.751 21.071 21.7535 21.3776 21.7609 21.5111V21.5086Z" fill="white"/>
</g>
<defs>
<clipPath id="clip0_66_96">
<rect width="45" height="45" fill="white"/>
</clipPath>
</defs>
</svg>
