<svg width="45" height="46" viewBox="0 0 45 46" fill="currentColor" xmlns="http://www.w3.org/2000/svg">
<g clip-path="url(#clip0_67_119)">
<path d="M20.5173 45.1069C20.2946 45.1069 20.0718 45.1069 19.849 45.1069C19.35 45.0134 18.8554 44.9109 18.3743 44.7416C17.7371 44.5144 17.1401 44.1891 16.5208 43.9262C16.4852 43.8639 16.4228 43.8728 16.3649 43.8772C16.1955 43.748 15.9995 43.6634 15.799 43.5876C15.7634 43.5787 15.7322 43.5743 15.6965 43.5654C15.545 43.4451 15.3757 43.3559 15.1842 43.3114C15.1619 43.298 15.1441 43.2891 15.1218 43.2757C15.0728 43.2535 15.0282 43.2312 14.9792 43.2089C14.9436 43.1465 14.8812 43.1555 14.8233 43.1599C14.7921 43.1287 14.7787 43.0753 14.7208 43.0797C14.6852 43.0708 14.654 43.0663 14.6183 43.0574C14.449 42.9238 14.253 42.8436 14.0525 42.7678C14.0213 42.7589 13.9856 42.7545 13.9545 42.7456C13.3619 42.4069 12.7381 42.1352 12.1099 41.8767C12.0921 41.8678 12.0743 41.8545 12.0564 41.8455C12.0119 41.8055 11.9673 41.7787 11.905 41.7743C11.8827 41.7609 11.8649 41.752 11.8426 41.7386C11.1297 41.4 10.4124 41.0569 9.69951 40.7183C9.66386 40.7139 9.63267 40.7094 9.59703 40.7005C9.49901 40.598 9.36535 40.5624 9.23614 40.5134C9.2005 40.5045 9.16931 40.5 9.13366 40.4911C8.8797 40.3218 8.59455 40.2149 8.31386 40.1035C8.27822 40.0946 8.24703 40.0901 8.21139 40.0812C8.16683 40.0411 8.12673 39.9876 8.05545 39.9965C8.0198 39.9921 7.98861 39.9876 7.95297 39.9832C7.87277 39.9431 7.79258 39.8896 7.69456 39.8985C7.65891 39.8896 7.62772 39.8807 7.59208 39.8762C7.44951 39.8495 7.3203 39.7292 7.1599 39.8094C6.96832 39.6891 6.74555 39.698 6.53614 39.6579C6.22871 39.6 5.88564 39.6713 5.63614 39.4129C5.63614 39.0475 5.64951 38.6822 5.64951 38.3124C5.64951 35.7906 5.64505 33.2688 5.64059 30.747C5.69852 30.6758 5.77426 30.6535 5.85891 30.6267C6.18416 30.5332 6.50495 30.4262 6.82574 30.3282C6.86139 30.3282 6.89257 30.3193 6.92822 30.3149C7.05743 30.3327 7.16436 30.2525 7.2802 30.2168C7.29802 30.2168 7.31584 30.2168 7.33812 30.2124C7.45842 30.2347 7.54753 30.1678 7.64555 30.1233C7.68119 30.1233 7.71238 30.1144 7.74802 30.1099C7.86386 30.1322 7.95743 30.0654 8.05545 30.0208C8.10891 30.0342 8.16238 30.0342 8.21139 30.003C8.33168 29.9762 8.45198 29.9451 8.56782 29.9183C8.63465 29.9139 8.70594 29.905 8.77277 29.9005C8.92871 29.8693 9.08465 29.847 9.24059 29.8114C9.62822 29.7223 10.0292 29.7401 10.4079 29.6109C10.4748 29.6109 10.546 29.6109 10.6129 29.6064C11.0406 29.5708 11.4683 29.5352 11.896 29.4995C12.0475 29.5262 12.199 29.5173 12.3505 29.4951C12.404 29.4951 12.4574 29.4861 12.5109 29.4817C12.5554 29.5129 12.6089 29.5129 12.6579 29.4951C12.7114 29.4951 12.7649 29.4861 12.8183 29.4817C12.8673 29.5129 12.9163 29.5129 12.9653 29.4951C13.549 29.5084 14.1327 29.5352 14.7119 29.602C14.7787 29.602 14.8455 29.6064 14.9168 29.6109C15.4649 29.749 16.0218 29.8381 16.5564 30.0074C16.5921 30.0119 16.6233 30.0163 16.6589 30.0208C16.7257 30.052 16.797 30.0787 16.8639 30.1099C16.8995 30.1144 16.9307 30.1188 16.9663 30.1233C17.0332 30.1545 17.1045 30.1812 17.1713 30.2124C17.2069 30.2168 17.2381 30.2213 17.2738 30.2257C17.9911 30.551 18.7218 30.8451 19.4302 31.197C20.0673 31.5134 20.7223 31.7896 21.4218 31.9455C21.502 31.9901 21.5911 31.9901 21.6802 31.9723C21.7916 32.0302 21.9074 32.0881 22.0411 32.048C22.2282 32.1015 22.4153 32.0881 22.6069 32.0748C23.0614 32.1683 23.5248 32.1683 23.9881 32.1728C24.0416 32.1728 24.0906 32.1728 24.1441 32.1772C24.2955 32.2262 24.4426 32.2842 24.6074 32.253C24.7589 32.2975 24.9149 32.2975 25.0663 32.2797C25.151 32.3154 25.2223 32.3777 25.3248 32.3555C25.4406 32.4 25.5609 32.3866 25.6856 32.3822C26.1446 32.4757 26.6079 32.5693 27.0668 32.6629C27.147 32.7074 27.2361 32.6985 27.3208 32.6896C27.4188 32.7342 27.5124 32.801 27.6282 32.7787C27.6639 32.7787 27.6951 32.7876 27.7307 32.7921C27.8287 32.8366 27.9223 32.9035 28.0381 32.8812C28.0738 32.8857 28.105 32.8901 28.1406 32.8946C28.2921 33.046 28.5149 33.0015 28.6886 33.0906H28.702H28.7153C28.8 33.1218 28.8802 33.153 28.9649 33.1842C29.0005 33.1886 29.0317 33.1975 29.0673 33.202C29.1653 33.3089 29.299 33.3401 29.4282 33.3891C29.504 33.4158 29.5396 33.5094 29.6332 33.5094C29.7178 33.5762 29.7668 33.6876 29.8871 33.7144C29.9406 33.7678 29.9985 33.8257 30.052 33.8792C30.1099 34.0084 30.1901 34.1243 30.297 34.2178C30.3238 34.2579 30.346 34.298 30.3728 34.3426C30.3594 34.4183 30.4218 34.4495 30.4574 34.4985C30.4485 34.552 30.4441 34.6055 30.4797 34.65C30.5243 34.8728 30.551 35.1 30.4797 35.3228C30.4753 35.3584 30.4708 35.3896 30.4663 35.4253C30.404 35.5634 30.3416 35.697 30.2748 35.8352L30.052 36.2941C30.0074 36.3386 29.954 36.3743 29.9495 36.4456C29.896 36.5035 29.8426 36.5658 29.7847 36.6238C29.7089 36.6995 29.6287 36.7797 29.553 36.8555C29.4772 36.9134 29.4015 36.9713 29.3257 37.0337C29.0495 37.1718 28.7554 37.2609 28.4569 37.3277C28.3678 37.3233 28.2832 37.3099 28.1985 37.3545C28.1451 37.3545 28.0916 37.3455 28.0381 37.3411C27.9713 37.3411 27.9 37.3322 27.8332 37.3277C27.802 37.301 27.7708 37.301 27.7396 37.3277C27.6861 37.3277 27.6327 37.3277 27.5792 37.3233C27.3698 37.2431 27.1515 37.2698 26.9376 37.252C26.3495 37.2074 25.7614 37.1718 25.1733 37.1361C25.0708 37.1361 24.9683 37.1272 24.8658 37.1272C24.5762 37.105 24.2911 37.0292 23.997 37.0426C23.8099 37.0069 23.6228 37.0114 23.4356 37.0248C23.2307 36.998 23.0257 36.9668 22.8208 36.9401C22.7896 36.9178 22.7584 36.9178 22.7272 36.9401C22.6871 36.9401 22.6426 36.9535 22.6025 36.949C21.9609 36.8733 21.3193 36.9 20.6777 36.9223C20.5218 36.9178 20.3703 36.8911 20.2144 36.9401C20.0451 36.9936 19.8802 36.8911 19.7153 36.9357C19.6708 36.949 19.604 36.9223 19.604 37.0025C19.604 37.047 19.6351 37.0827 19.6752 37.096C20.2233 37.3099 20.7267 37.6262 21.2881 37.8045C21.3238 37.8089 21.355 37.8134 21.3906 37.8223C21.4485 37.8713 21.502 37.9426 21.5955 37.9114C21.6312 37.9158 21.6624 37.9203 21.698 37.9248C21.747 37.9604 21.7782 38.0228 21.854 38.0094C21.903 38.0406 21.952 38.0406 22.0054 38.0272C22.0723 38.054 22.1436 38.0852 22.2104 38.1119C22.2594 38.1163 22.3129 38.1253 22.3619 38.1297C22.4376 38.1921 22.5178 38.2366 22.6203 38.2144L22.7228 38.2233C23.7297 38.4951 24.7545 38.5708 25.7926 38.4817C26.4119 38.4282 27.0267 38.3792 27.6327 38.2233C27.7352 38.2411 27.8376 38.2411 27.9401 38.2099C28.1049 38.2366 28.252 38.1654 28.399 38.1208C28.4837 38.1386 28.5728 38.1342 28.6574 38.1074C28.9782 38.0451 29.3079 38.005 29.6198 37.9158C29.8693 37.8401 30.15 37.8178 30.3549 37.6262C30.3861 37.6173 30.4173 37.6084 30.4485 37.5951C30.5109 37.604 30.5376 37.5728 30.5599 37.5238C30.5911 37.5149 30.6223 37.5059 30.6535 37.4926C30.7158 37.5015 30.7426 37.4658 30.7604 37.4168C30.9921 37.3456 31.1569 37.1852 31.2995 36.998L31.3173 36.9847C31.5267 36.8777 31.696 36.7173 31.8743 36.5703C32.2218 36.2807 32.5649 35.9866 32.9614 35.7594C33.1441 35.648 33.3624 35.6079 33.5272 35.4654C33.5851 35.4564 33.6431 35.4654 33.6787 35.403C33.7144 35.3852 33.7455 35.3673 33.7812 35.3495C33.8168 35.3495 33.848 35.3451 33.8837 35.3406C33.9861 35.354 34.0663 35.305 34.1376 35.247C34.1866 35.2426 34.2401 35.2381 34.2891 35.2292C34.3916 35.247 34.4718 35.2025 34.5475 35.1446C34.6856 35.1267 34.8327 35.1936 34.9574 35.0911C35.4698 35.0777 35.9376 35.2381 36.3921 35.4564C36.4099 35.4743 36.4322 35.4876 36.45 35.5055C36.5569 35.6436 36.7084 35.7371 36.802 35.8931C37.0693 36.3386 36.9446 36.7485 36.7084 37.1495C36.6416 37.2074 36.5703 37.2654 36.5035 37.3322C36.3743 37.4569 36.3475 37.5594 36.5347 37.6753C36.6639 37.7555 36.753 37.9025 36.8599 38.0183L36.9267 38.1654C36.9267 38.1654 36.9535 38.2055 36.9624 38.2277C36.9535 38.3658 36.9401 38.504 36.9312 38.6421C36.9223 38.6777 36.9178 38.7089 36.9089 38.7446C36.7797 38.9317 36.6505 39.1188 36.5168 39.3104C36.5079 39.3238 36.499 39.3371 36.4856 39.355C36.3965 39.3772 36.352 39.4441 36.3119 39.5154C36.2851 39.5421 36.2629 39.5644 36.2361 39.5911C36.1738 39.6134 36.1292 39.6579 36.1069 39.7248C35.9421 39.8762 35.7817 40.0277 35.6168 40.1792C35.3852 40.3396 35.1535 40.4956 34.953 40.6916C34.5743 40.9055 34.2356 41.1728 33.8792 41.4223C33.6653 41.5559 33.447 41.6852 33.2421 41.8322C32.7342 42.1931 32.1817 42.496 31.7005 42.9015C31.6782 42.9238 31.6515 42.9416 31.6292 42.9639C31.3975 43.0842 31.1658 43.2 30.9653 43.3693C30.9297 43.3782 30.8985 43.3827 30.8629 43.3916C30.7292 43.4584 30.5733 43.4762 30.453 43.5743C30.4173 43.5832 30.3861 43.5921 30.3505 43.5965C30.0431 43.6723 29.7356 43.7658 29.4238 43.8282C29.1342 43.8861 28.8356 43.8683 28.5594 43.9886C28.4391 43.9753 28.3188 43.9663 28.203 44.0154C28.0381 43.9842 27.8911 44.0421 27.7396 44.0911C27.6505 44.0822 27.5658 44.0733 27.4812 44.1178C26.8886 44.1891 26.296 44.2738 25.7079 44.403C25.6455 44.3852 25.5876 44.3896 25.5342 44.4253C25.4005 44.3852 25.2891 44.4431 25.1733 44.501C25.0886 44.501 25.004 44.5099 24.9149 44.5144C24.7767 44.4787 24.6698 44.5545 24.5584 44.6035C24.4381 44.5901 24.3178 44.5812 24.202 44.6302C24.0772 44.6391 23.9569 44.6525 23.8455 44.7059C23.7921 44.7059 23.7431 44.7104 23.6896 44.7149C23.5248 44.7015 23.3733 44.7282 23.2307 44.8084C23.1282 44.7906 23.0257 44.7951 22.9233 44.8218C22.7451 44.8084 22.5757 44.853 22.4109 44.9109C22.3441 44.9109 22.2728 44.9109 22.2059 44.9154C21.6446 44.9822 21.0787 45.049 20.5173 45.1158V45.1069Z" fill="white"/>
<path d="M44.697 17.2203C44.7015 17.3049 44.7104 17.3896 44.7149 17.4743C44.7149 17.6035 44.755 17.7193 44.7995 17.8351C44.804 17.9554 44.8129 18.0713 44.8173 18.1916C44.8173 18.3208 44.8574 18.4366 44.902 18.5525C44.9064 18.6549 44.9109 18.7574 44.9153 18.8599C44.8975 19.1406 44.9554 19.4079 45.0045 19.6797C45.0045 20.7045 45.0045 21.7292 45.0045 22.754C44.951 22.9723 44.9376 23.1995 44.9198 23.4223C44.9153 23.5738 44.9064 23.7297 44.902 23.8812C44.853 23.9792 44.8352 24.0817 44.8307 24.1931C44.7728 24.3579 44.7995 24.5317 44.7995 24.701C44.6658 24.9416 44.6658 25.2178 44.6079 25.4718C44.5678 25.6545 44.4832 25.8371 44.501 26.0332C44.501 26.0688 44.4921 26.1 44.4876 26.1356C44.4609 26.2381 44.4386 26.3406 44.4119 26.4475C44.3807 26.4965 44.3807 26.5455 44.3896 26.599C44.3718 26.6347 44.354 26.6658 44.3361 26.7015C44.2515 26.7728 44.2827 26.8663 44.2827 26.9554C44.2515 26.9822 44.2292 27.0134 44.2337 27.0579C44.1579 27.1114 44.1847 27.1916 44.1802 27.2629C44.1312 27.3252 44.0866 27.3832 44.1089 27.4678C44.0688 27.5302 44.0688 27.6015 44.0777 27.6728C43.9931 27.7797 43.9708 27.9089 43.9262 28.0337C43.8505 28.0871 43.8728 28.1673 43.8772 28.2386C43.8594 28.2743 43.8416 28.3054 43.8238 28.3411C43.748 28.3946 43.7703 28.4747 43.7748 28.546C43.7569 28.5817 43.7391 28.6129 43.7213 28.6485C43.6455 28.702 43.6678 28.7822 43.6678 28.8535C43.6366 28.8847 43.5832 28.898 43.5876 28.9559C43.5787 28.9916 43.5743 29.0228 43.5653 29.0584C43.5386 29.0851 43.5074 29.1119 43.5119 29.1609C43.454 29.1965 43.454 29.2545 43.4584 29.3168C43.4228 29.3614 43.3738 29.4015 43.3782 29.4639C43.3738 29.4772 43.3649 29.4906 43.3604 29.5084C43.3604 29.5173 43.3604 29.5218 43.3649 29.5307C43.2134 29.7891 43.0931 30.0609 42.9951 30.3416C42.9327 30.3772 42.9416 30.4396 42.946 30.4975C42.8391 30.5733 42.799 30.6846 42.7589 30.8005C42.7411 30.8094 42.7366 30.8272 42.7455 30.845C42.7099 30.8762 42.6832 30.9074 42.6876 30.9564C42.6743 30.9787 42.6654 30.9965 42.652 31.0188C42.6297 31.0678 42.6074 31.1168 42.5852 31.1614C42.5718 31.1837 42.5629 31.2015 42.5495 31.2238C42.2866 31.6827 42.0238 32.1371 41.7564 32.596C41.6941 32.6584 41.6228 32.7074 41.6139 32.8054C41.5916 32.8411 41.5738 32.8723 41.5515 32.9079C41.498 32.9747 41.4178 33.0193 41.4045 33.1129L41.3421 33.2153C41.2797 33.2733 41.2084 33.3267 41.1995 33.4247C41.1772 33.4559 41.1594 33.4916 41.1371 33.5228C40.9634 33.7545 40.7896 33.9817 40.6114 34.2134C40.5579 34.2401 40.5312 34.2846 40.5223 34.3426C40.4109 34.4584 40.2861 34.5609 40.2193 34.7124C40.1525 34.7391 40.1347 34.797 40.1124 34.8549C39.9386 35.0421 39.7381 35.2025 39.6045 35.4297C39.4574 35.599 39.2569 35.7238 39.1545 35.9332C39.0653 36.0223 38.9762 36.1114 38.8871 36.2049C38.6777 36.3609 38.6644 36.3564 38.6243 36.0891L38.6064 35.8351C38.5396 35.501 38.4015 35.1936 38.1965 34.9218L38.1074 34.8104C38.0852 34.6901 37.9649 34.6411 37.9069 34.552L38.0629 34.3247C38.1253 34.298 38.1698 34.2535 38.1965 34.1911C38.3257 34.1198 38.3837 33.9817 38.4728 33.8792C38.5396 33.8569 38.5574 33.7946 38.5797 33.7366C38.7356 33.5985 38.8649 33.4381 38.9851 33.2644C39.052 33.2421 39.0698 33.1797 39.0876 33.1218H39.101V33.104C39.1366 33.0594 39.1723 33.0104 39.2124 32.9658C39.2213 32.948 39.2302 32.9346 39.2391 32.9168C39.4485 32.7074 39.6 32.4535 39.7693 32.2129C40.3886 31.3218 40.9233 30.3817 41.3733 29.397C41.596 28.9069 41.8366 28.4213 41.9748 27.8955C41.9837 27.8599 41.9926 27.8287 41.997 27.7931C42.0772 27.646 42.1574 27.499 42.1842 27.3297C42.1842 27.2941 42.1931 27.2629 42.1975 27.2272C42.2287 27.1604 42.2555 27.0891 42.2866 27.0223C42.2911 26.9733 42.3 26.9198 42.3045 26.8708C42.3535 26.8129 42.3936 26.746 42.3847 26.6658C42.4158 26.6168 42.4158 26.5634 42.4025 26.5099C42.7589 25.5698 42.8926 24.5807 43.0084 23.5916C43.0084 23.5426 43.0084 23.4891 43.0129 23.4401C43.0574 23.1683 43.1465 22.901 43.102 22.6158C43.1376 22.2728 43.1332 21.9342 43.1153 21.5911C43.1866 21.3549 43.1866 21.1188 43.1153 20.8782C43.1332 20.5351 43.1332 20.1965 43.102 19.8535C43.1109 19.6084 43.0931 19.3678 43.0129 19.1361C43.0262 19.0158 43.0396 18.8955 42.9951 18.7797C43.0084 18.6193 42.9639 18.4678 42.9104 18.3163C42.9104 18.2495 42.9015 18.1782 42.897 18.1114C42.9059 17.9822 42.9059 17.8574 42.8124 17.7505C42.8079 17.7015 42.8035 17.648 42.7946 17.599C42.7901 17.4564 42.75 17.3228 42.7054 17.1891C42.7054 17.1356 42.701 17.0866 42.6965 17.0332C42.6208 16.5386 42.4649 16.0663 42.3 15.5985C42.2955 15.5495 42.2866 15.496 42.2822 15.447C42.251 15.3802 42.2243 15.3089 42.1931 15.2421C42.1886 15.2064 42.1842 15.1752 42.1797 15.1396C42.1886 15.0683 42.1352 15.0327 42.0951 14.9837L42.0728 14.8812C42.0861 14.7965 42.0416 14.7342 41.9926 14.6762C41.9837 14.6406 41.9792 14.6094 41.9703 14.5738C41.9837 14.4891 41.9391 14.4267 41.8901 14.3688C41.8812 14.3332 41.8767 14.302 41.8678 14.2663C41.7208 13.9723 41.6629 13.6381 41.4535 13.3708H41.449C41.4223 13.1257 41.3064 12.9252 41.1728 12.7292C41.1639 12.6936 41.1594 12.6624 41.1505 12.6267C41.1238 12.5287 41.0748 12.4485 40.9946 12.3906C40.9856 12.3683 40.9723 12.3416 40.9634 12.3193C40.8119 11.9049 40.5713 11.5351 40.3218 11.1787C40.3084 11.1698 40.2906 11.1564 40.2772 11.1475L40.2683 11.1564L40.2817 11.1475C40.1257 10.7421 39.8718 10.3946 39.5955 10.0649C39.4975 9.89554 39.4262 9.70396 39.2436 9.60148C39.2124 9.41436 39.0564 9.30297 38.954 9.16485C38.3302 8.35842 37.604 7.64109 36.8688 6.93267C36.7351 6.80347 36.6327 6.61634 36.4233 6.57178C36.3743 6.48267 36.3119 6.41139 36.2183 6.37129C36.0936 6.2599 35.9733 6.13515 35.8396 6.03713C35.5589 5.83663 35.3183 5.57822 34.9931 5.44455C34.7614 5.18614 34.4406 5.05693 34.1688 4.85198C33.9104 4.71386 33.6921 4.50446 33.4069 4.4198C32.8322 4.02327 32.1995 3.73812 31.5579 3.45743C31.5223 3.39505 31.4599 3.40396 31.402 3.40842C31.3753 3.38168 31.3485 3.3505 31.2995 3.35495C31.2639 3.29703 31.2059 3.29703 31.1436 3.30149C30.854 3.14109 30.5465 3.02079 30.2213 2.94505C30.1678 2.86931 30.0921 2.88713 30.0163 2.89158C29.9673 2.85594 29.9361 2.79356 29.8604 2.80248C29.8248 2.80248 29.7936 2.79802 29.7579 2.79356C29.7223 2.77574 29.6911 2.75792 29.6554 2.7401C29.5842 2.65545 29.4906 2.68663 29.4015 2.68663C29.3748 2.65545 29.3436 2.63317 29.299 2.63762C29.2277 2.54852 29.1297 2.58861 29.0406 2.58861C28.5371 2.34802 27.9891 2.29455 27.4545 2.18762C27.3876 2.18762 27.3163 2.17871 27.2495 2.17426C27.2228 2.14307 27.1916 2.12079 27.147 2.12525C27.0223 2.01832 26.8753 2.0896 26.7371 2.07178C26.6213 2.02723 26.5055 1.98713 26.3762 1.98713C26.2248 1.98267 26.0688 1.97376 25.9173 1.96931C25.6144 1.89802 25.3069 1.85347 24.9951 1.8802C24.8569 1.8802 24.7233 1.87129 24.5852 1.86683C24.4158 1.80446 24.2465 1.80446 24.0772 1.86683C24.0416 1.86683 24.0059 1.86683 23.9703 1.86683C23.9391 1.82673 23.9035 1.82673 23.8723 1.86683H23.7654C23.7342 1.82673 23.6985 1.82673 23.6673 1.86683C23.6317 1.86683 23.596 1.86683 23.5604 1.86683C23.4936 1.81337 23.4267 1.80891 23.3599 1.86683C23.3243 1.86683 23.2886 1.86683 23.253 1.86683C23.1861 1.81337 23.1193 1.80891 23.0525 1.86683C22.901 1.86683 22.7451 1.87129 22.5936 1.87574C22.1347 1.84901 21.6891 1.95149 21.2347 1.97822C21.0832 1.98713 20.9272 1.95594 20.8025 2.07624C20.6644 2.08515 20.5173 2.03168 20.3926 2.1297C20.348 2.12525 20.3168 2.14753 20.2901 2.17871C20.1698 2.1698 20.0495 2.16535 19.9337 2.19653C19.8312 2.17871 19.751 2.22327 19.6753 2.28119L19.5728 2.29455C19.0337 2.3703 18.5168 2.52178 18.0045 2.70446C17.9822 2.70446 17.9599 2.71337 17.9376 2.71782C17.853 2.70446 17.7906 2.74901 17.7282 2.79802C17.6703 2.79802 17.6124 2.78911 17.5723 2.85149C17.5366 2.86931 17.5055 2.88713 17.4698 2.90495C17.3941 2.9005 17.3183 2.88267 17.2649 2.95396C17.2292 2.97178 17.198 2.9896 17.1624 3.00743C17.0866 3.00297 17.0109 2.98515 16.9574 3.05644C16.9129 3.04753 16.8861 3.07871 16.855 3.1099C16.797 3.10545 16.7347 3.09653 16.699 3.15891C16.4941 3.24356 16.2891 3.32822 16.0842 3.41287C16.0262 3.41287 15.9683 3.40842 15.9282 3.46634C15.8792 3.48861 15.8347 3.51089 15.7856 3.53317C15.6297 3.60446 15.4738 3.67574 15.3178 3.74257C15.2599 3.74257 15.2465 3.79158 15.2154 3.82277C15.1797 3.83168 15.1485 3.83614 15.1129 3.84505C15.0639 3.87624 15.0149 3.90743 14.9658 3.94307C14.8946 3.94307 14.8545 4.00099 14.801 4.03218C14.7698 4.03663 14.7297 4.03218 14.703 4.05C14.0525 4.39307 13.4198 4.76733 12.8183 5.19059C12.4396 5.45792 12.0475 5.70743 11.7045 6.02376C11.5931 6.11733 11.4817 6.20644 11.3703 6.3C11.2144 6.38465 11.103 6.51832 10.9827 6.63861L10.9114 6.70099C10.6663 6.9104 10.399 7.09307 10.203 7.35594C10.0069 7.52079 9.8109 7.68564 9.68169 7.91287C9.56139 7.96634 9.48565 8.07327 9.401 8.16683C8.90199 8.72376 8.41634 9.2896 7.99307 9.90445C7.7302 10.2876 7.4406 10.653 7.24456 11.0762C7.18664 11.0941 7.17327 11.1386 7.16882 11.1921C6.77674 11.7579 6.46931 12.3683 6.17525 12.9921C6.1708 13.0277 6.16189 13.0589 6.15743 13.0946C6.02377 13.2639 5.95248 13.4644 5.86783 13.6604C5.85892 13.696 5.85446 13.7272 5.84555 13.7629C5.79654 13.8208 5.75644 13.8876 5.76535 13.9678C5.75644 14.0035 5.75199 14.0347 5.74307 14.0703C5.64951 14.1505 5.62723 14.2574 5.61832 14.3688C5.51139 14.4089 5.52921 14.498 5.53367 14.5827C5.50248 14.6094 5.4802 14.6406 5.48466 14.6851C5.40892 14.7386 5.42674 14.8144 5.43119 14.8901C5.4 14.9168 5.37773 14.948 5.38218 14.9926C5.30644 15.046 5.33317 15.1262 5.32872 15.1975C5.29753 15.2243 5.2708 15.2554 5.27971 15.3C5.20397 15.3535 5.22179 15.4292 5.22624 15.5049C5.1906 15.5495 5.14159 15.5896 5.1505 15.6564C5.1505 15.6832 5.14159 15.7099 5.13713 15.7411C4.98119 16.1109 4.93218 16.5074 4.82971 16.895C4.82971 16.9441 4.8208 16.9975 4.81634 17.0465C4.76733 17.1089 4.72278 17.1713 4.74505 17.2559C4.69604 17.354 4.70941 17.4564 4.71387 17.5589C4.6203 17.6614 4.62476 17.7906 4.62476 17.9198C4.6203 18.0045 4.61585 18.0891 4.61139 18.1738C4.58466 18.2762 4.55793 18.3787 4.53565 18.4856C4.49109 18.5837 4.51337 18.6906 4.50892 18.7931C4.45545 19.0292 4.39307 19.2653 4.41981 19.5104C4.41535 19.6485 4.4109 19.7822 4.40644 19.9203C4.36634 19.9515 4.36634 19.9871 4.40644 20.0183C4.40644 20.054 4.40644 20.0896 4.40644 20.1252C4.24159 20.8738 4.28614 21.6267 4.40644 22.3752C4.40644 22.4109 4.40644 22.4465 4.40644 22.4822C4.36634 22.5134 4.36634 22.549 4.40644 22.5802C4.4109 22.7183 4.41535 22.852 4.41981 22.9901C4.40644 23.2351 4.41535 23.4757 4.50892 23.7074C4.50892 23.8099 4.49109 23.9124 4.53565 24.0148C4.56238 24.1173 4.58911 24.2198 4.61139 24.3223L4.62921 24.6787C4.61139 24.7812 4.65595 24.8614 4.71387 24.9371L4.72278 25.0931C4.69604 25.2267 4.73614 25.3426 4.81634 25.4495L4.82971 25.601C4.92773 25.9574 4.96337 26.3361 5.12822 26.6792C5.12822 26.7505 5.10595 26.8307 5.18169 26.8842C5.17723 26.9287 5.19505 26.9599 5.2307 26.9866C5.2307 27.0579 5.19951 27.1381 5.27971 27.1916C5.29753 27.2272 5.31535 27.2584 5.33317 27.2941C5.33317 27.3698 5.3109 27.4455 5.38664 27.499C5.38218 27.5436 5.40446 27.5747 5.43565 27.6015C5.43565 27.6772 5.41337 27.753 5.48911 27.8064C5.48466 27.851 5.50248 27.8822 5.53812 27.9089C5.54703 27.9446 5.55149 27.9757 5.5604 28.0114C5.5604 28.1094 5.60941 28.1851 5.65842 28.2609C5.67179 28.2832 5.6807 28.301 5.69406 28.3233C5.68961 28.3678 5.71189 28.399 5.74307 28.4257C5.74307 28.5015 5.7208 28.5772 5.79654 28.6307C5.81436 28.6663 5.83218 28.6975 5.84555 28.7332C5.84555 28.7688 5.84109 28.8045 5.83664 28.8401C5.54258 28.9782 5.55595 28.9738 5.41783 28.6619C5.32426 28.4525 5.21733 28.2386 5.00793 28.1049C4.99456 28.0247 4.94109 28.0025 4.87426 28.0025C4.78961 27.8911 4.67822 27.8153 4.54902 27.7619C4.49555 27.7173 4.49555 27.6148 4.39307 27.6327L4.2906 27.6104C4.12575 27.499 3.93862 27.4366 3.74703 27.4322C3.49307 27.4277 3.31931 27.3564 3.25694 27.0936L3.23466 26.9421C3.24357 26.8708 3.19456 26.8307 3.15446 26.7861C3.15446 26.7327 3.14555 26.6837 3.14555 26.6302C3.18119 26.5188 3.11882 26.4475 3.05199 26.3762C3.0609 26.3049 3.06535 26.2381 3.02971 26.1713C3.03862 26.0866 3.00298 26.0243 2.95397 25.9663C2.95397 25.8639 2.97179 25.7614 2.92278 25.6634C2.94505 25.5787 2.9005 25.5163 2.85149 25.454C2.85149 25.3515 2.87377 25.2446 2.82476 25.1465C2.84258 25.0351 2.82476 24.9282 2.74902 24.8391C2.75347 24.7678 2.75793 24.701 2.71783 24.6386C2.74902 24.4916 2.69109 24.3579 2.64654 24.2243C2.64208 24.0861 2.66882 23.948 2.61535 23.8188C2.63317 23.6406 2.59307 23.4713 2.54406 23.302C2.53961 23.1995 2.53515 23.097 2.5307 22.9946C2.54406 22.6158 2.49951 22.2416 2.44159 21.8673C2.44159 21.8317 2.44159 21.796 2.44159 21.7604C2.47278 21.0074 2.49951 20.2545 2.5307 19.5059C2.53515 19.4035 2.53961 19.301 2.54406 19.1985C2.5708 19.0114 2.60199 18.8198 2.62872 18.6327C2.63317 18.5124 2.64208 18.3965 2.64654 18.2762C2.70446 18.1292 2.73565 17.9733 2.73565 17.8129C2.73565 17.7639 2.74456 17.7104 2.74902 17.6614C2.85149 17.5411 2.83812 17.3941 2.83812 17.2515C2.83812 17.2158 2.84703 17.1847 2.85149 17.149C2.87822 17.0465 2.90496 16.9441 2.92723 16.8371C2.97179 16.7391 2.94951 16.6322 2.94951 16.5342C2.98961 16.4896 3.03862 16.4495 3.02971 16.3782C3.03862 16.2936 3.04307 16.2089 3.05199 16.1243C3.09208 16.0797 3.14109 16.0396 3.13218 15.9683C3.13664 15.9193 3.14555 15.8658 3.15001 15.8168C3.20793 15.7589 3.23466 15.6876 3.24357 15.6119C3.33268 15.0416 3.58664 14.5203 3.74258 13.9723C3.75149 13.9233 3.75595 13.8698 3.76486 13.8208C3.79604 13.7896 3.84951 13.7762 3.84505 13.7183C3.8807 13.6738 3.8807 13.6203 3.87179 13.5668C3.91189 13.5223 3.9609 13.4822 3.95199 13.4109C3.95644 13.3752 3.9609 13.3441 3.96981 13.3084C4.00545 13.2594 4.06783 13.2282 4.05446 13.1525L4.07674 13.05C4.18367 12.952 4.21931 12.8183 4.26387 12.6891C4.26832 12.6535 4.27723 12.6223 4.28169 12.5866C4.31288 12.5554 4.36634 12.5421 4.36189 12.4842C4.38862 12.4218 4.4109 12.3594 4.44208 12.3015C4.63367 11.9005 4.82525 11.504 5.01684 11.1074C5.13713 11.0183 5.16832 10.8668 5.24406 10.751C5.41337 10.4837 5.5604 10.203 5.7208 9.92673C5.82773 9.82871 5.8901 9.70396 5.93911 9.5703C6.26882 9.1203 6.59852 8.66584 6.93268 8.21584L6.94159 8.20693C7.0307 8.09554 7.11981 7.98416 7.20892 7.87723C7.29803 7.76139 7.38268 7.65 7.47179 7.53416C7.77921 7.25347 8.02872 6.91485 8.30496 6.60297C8.48763 6.49158 8.59901 6.30891 8.75496 6.17079C8.85743 6.07277 8.95545 5.97475 9.05793 5.88119C9.35199 5.60495 9.64159 5.33317 9.93565 5.06139C10.0738 4.98564 10.1852 4.87426 10.2965 4.75842C10.3322 4.74059 10.3812 4.73614 10.4079 4.70941C11.1564 4.06782 11.9673 3.5198 12.8094 3.01634C13.0322 2.88267 13.2505 2.74455 13.4688 2.60644C13.5267 2.60644 13.5847 2.60198 13.6203 2.54406C13.7807 2.46832 13.9411 2.39703 14.0792 2.28564C14.1149 2.27673 14.146 2.27228 14.1817 2.26337C14.3465 2.16089 14.5426 2.11188 14.6941 1.97822C14.7297 1.97376 14.7609 1.96485 14.7965 1.9604C14.997 1.88911 15.1931 1.80891 15.3624 1.67079C15.398 1.66188 15.4292 1.65743 15.4649 1.64852C15.5406 1.66634 15.5718 1.59951 15.6208 1.56386C15.6564 1.56386 15.6876 1.55941 15.7233 1.55495C15.7946 1.56386 15.8302 1.50594 15.8792 1.46584C15.9371 1.47475 15.9951 1.4703 16.0307 1.41238C16.0663 1.39456 16.0975 1.37673 16.1332 1.35891C16.1911 1.36337 16.2535 1.37228 16.2891 1.3099C16.3337 1.31436 16.3649 1.29654 16.3916 1.26089C16.4272 1.25198 16.4584 1.24753 16.4941 1.23861C16.7926 1.14505 17.0955 1.06485 17.3852 0.949011C17.599 0.864357 17.8441 0.89109 18.0312 0.74406C18.1025 0.74406 18.1827 0.766337 18.2361 0.690595C18.2807 0.69505 18.3119 0.672773 18.3386 0.641585C18.4099 0.650496 18.4767 0.654951 18.5436 0.619308C18.6282 0.628219 18.6906 0.58812 18.7485 0.543565C18.8332 0.53911 18.9178 0.530199 19.0025 0.525743C19.105 0.543565 19.1852 0.499011 19.2609 0.44109C19.3634 0.432179 19.4792 0.476733 19.5683 0.387625C19.6396 0.378714 19.7154 0.39208 19.7733 0.338615C19.8223 0.334159 19.8757 0.325248 19.9248 0.320793C20.054 0.320793 20.1698 0.280694 20.2856 0.236139C20.4059 0.231684 20.5218 0.222773 20.6421 0.218318C20.7713 0.218318 20.8871 0.178219 21.003 0.133664C21.0698 0.133664 21.1411 0.124753 21.2079 0.120298C21.453 0.142575 21.6891 0.0846543 21.9253 0.031189C23.155 0.031189 24.3847 0.031189 25.6144 0.031189C25.7658 0.0757434 25.9084 0.155941 26.0777 0.115842C26.198 0.120298 26.3139 0.129209 26.4342 0.133664C26.5812 0.191585 26.7371 0.227229 26.8975 0.218318C27.0178 0.222773 27.1337 0.231684 27.254 0.236139C27.7307 0.378714 28.2208 0.458912 28.7109 0.556931C29.1208 0.641585 29.5218 0.779704 29.9272 0.895545C30.0787 0.9401 30.2302 0.984654 30.3817 1.03366C30.4173 1.03812 30.4485 1.04703 30.4842 1.05149C30.5332 1.08713 30.5644 1.14951 30.6401 1.13614C30.6891 1.16733 30.7381 1.16287 30.7916 1.15396C30.8406 1.1896 30.8718 1.25198 30.9475 1.23861C30.9965 1.2698 31.0455 1.26535 31.099 1.25644C31.148 1.29208 31.1792 1.35446 31.255 1.34109C31.2906 1.35 31.3218 1.35446 31.3574 1.36337C31.402 1.40347 31.4421 1.45693 31.5134 1.44802C31.549 1.45248 31.5802 1.45693 31.6158 1.46584C31.6649 1.50149 31.696 1.56386 31.7718 1.5505C31.8074 1.55941 31.8386 1.56386 31.8743 1.57277C31.9188 1.61287 31.9589 1.66634 32.0302 1.65743C32.0658 1.66188 32.097 1.67079 32.1327 1.67525C32.3866 1.84901 32.6629 1.96931 32.9525 2.06733C33.2554 2.21881 33.5451 2.40594 33.8703 2.50842C34.2223 2.7802 34.6277 2.95842 35.002 3.19455C35.051 3.23911 35.0866 3.29703 35.1624 3.30149C35.2515 3.37723 35.3361 3.45743 35.4609 3.47079C35.4787 3.51535 35.5188 3.52426 35.5589 3.52871C35.8441 3.77822 36.1559 4.00099 36.4812 4.19703C36.5792 4.28614 36.655 4.40198 36.7886 4.44208C36.8198 4.46436 36.8554 4.48218 36.8866 4.50446C37.0069 4.6203 37.1094 4.75842 37.2698 4.82525C37.4837 5.04356 37.7153 5.2396 37.9649 5.42228L38.0228 5.4802C38.201 5.65396 38.3569 5.85446 38.5753 5.98366C38.7312 6.1396 38.8916 6.3 39.0475 6.45594C39.1767 6.67871 39.3772 6.8302 39.551 7.01287H39.5554C39.5822 7.09752 39.6312 7.1599 39.7025 7.2C39.7738 7.31139 39.8629 7.4005 39.9653 7.48069C40.0589 7.64554 40.1837 7.78812 40.3129 7.92624C40.3663 7.98416 40.4198 8.03762 40.4777 8.09554C40.6559 8.40742 40.8921 8.67475 41.1059 8.95545C41.2441 9.16931 41.351 9.40545 41.5426 9.57921C41.5649 9.63267 41.5782 9.69505 41.6139 9.74406C42.0371 10.3188 42.3446 10.9604 42.6832 11.5797C42.8748 11.9317 43.0485 12.297 43.2267 12.6579C43.347 12.9653 43.4718 13.2728 43.5921 13.5757C43.65 13.7094 43.65 13.8698 43.7525 13.9856C43.7525 14.0436 43.7436 14.1015 43.8059 14.1416C43.8238 14.1772 43.8416 14.2084 43.8594 14.2441C43.8594 14.2797 43.8639 14.3109 43.8683 14.3465C43.9129 14.5114 43.9485 14.6762 44.0599 14.8099C44.051 14.8812 44.0554 14.948 44.0911 15.0104C44.0688 15.095 44.1178 15.1574 44.1624 15.2153C44.1668 15.3045 44.1401 15.398 44.2158 15.4738C44.2069 15.5228 44.2381 15.545 44.2649 15.5762C44.2604 15.652 44.2426 15.7277 44.3139 15.7812C44.3317 15.8168 44.3495 15.848 44.3673 15.8837C44.3673 15.9371 44.3718 15.9861 44.3762 16.0396C44.4698 16.4495 44.5054 16.8772 44.6703 17.2693L44.697 17.2203Z" fill="white"/>
<path d="M17.599 2.83368C17.5901 2.90051 17.5723 2.94952 17.4965 2.88714C17.5322 2.86932 17.5634 2.8515 17.599 2.83368Z" fill="white"/>
<path d="M34.8639 18.9624C34.8683 19.0114 34.8728 19.0648 34.8817 19.1139C34.846 19.2252 34.9574 19.2921 34.9663 19.399C34.9842 19.6262 35.1223 19.7733 35.345 19.8267C35.5901 19.8846 35.8396 19.9247 36.0891 19.9693C36.1381 19.9693 36.1916 19.9738 36.2406 19.9782C36.3742 20.0272 36.5079 20.0629 36.6505 20.0673C36.7173 20.0673 36.7886 20.0762 36.8554 20.0807C36.9891 20.1297 37.1228 20.1653 37.2653 20.1698C37.35 20.1743 37.4346 20.1787 37.5193 20.1876C37.7153 20.2945 37.8846 20.4238 37.9381 20.6554C37.9381 20.7579 37.9381 20.8648 37.9381 20.9673C37.8624 21.5644 37.8624 22.1569 37.9381 22.754C37.9381 22.8074 37.9381 22.8609 37.9381 22.9143C37.9025 22.999 37.8401 23.0703 37.849 23.1683C37.8223 23.204 37.7955 23.2441 37.7733 23.2797C37.6619 23.3287 37.5505 23.3777 37.4213 23.4C37.1094 23.4535 36.802 23.5247 36.4901 23.5916C36.4411 23.5916 36.3876 23.6005 36.3386 23.6005C36.2139 23.6005 36.0936 23.6406 35.9777 23.6851C35.8931 23.6896 35.8084 23.6985 35.7238 23.703C35.5945 23.6941 35.4698 23.6985 35.3629 23.7876C35.2648 23.7832 35.1624 23.7742 35.1044 23.8856C35.0465 23.9213 35.002 23.9747 34.9797 24.0416C34.9307 24.1931 34.953 24.3445 34.953 24.5005C34.895 24.5762 34.8505 24.6564 34.8549 24.7589C34.5653 25.1866 34.5609 25.3648 34.8416 25.6812C35.1445 26.051 35.5723 26.2782 35.9242 26.5945C36.1069 26.7549 36.2673 26.9421 36.4856 27.0668C36.7574 27.3832 36.7619 27.4277 36.5703 27.8064C36.548 27.851 36.5257 27.8955 36.5035 27.9401C36.4723 27.9936 36.4099 28.0292 36.4099 28.1049C36.1292 28.5817 35.8485 29.054 35.5767 29.5307C35.3629 29.9049 35.2337 29.9673 34.8371 29.8203C34.2312 29.5931 33.6163 29.3703 33.0059 29.1564C32.7074 29.054 32.4802 29.094 32.2708 29.3213C32.0035 29.6064 31.7317 29.8871 31.4554 30.1678C31.3931 30.2346 31.353 30.2926 31.3931 30.395C31.6559 31.0767 31.9143 31.754 32.1728 32.4356C32.3153 32.8143 32.2129 33.095 31.8921 33.2198C31.7896 33.2599 31.7228 33.2733 31.647 33.1485C31.5312 32.9614 31.3752 32.801 31.2238 32.6406C30.5153 31.9054 29.6153 31.5401 28.6485 31.2906C28.6129 31.2906 28.5817 31.2817 28.546 31.2772C28.4658 31.2416 28.3856 31.1881 28.2876 31.1926C28.2386 31.1614 28.1896 31.1614 28.1361 31.1747C28.0515 31.1391 27.9757 31.0856 27.8777 31.0901C27.8287 31.0589 27.7797 31.0589 27.7262 31.0723C27.6282 31.0322 27.5346 30.9609 27.4143 30.9832C27.3609 30.9564 27.3074 30.9564 27.254 30.9742C27.1693 30.9431 27.0891 30.9163 27.0044 30.8851C26.9376 30.854 26.8708 30.8584 26.7995 30.8673C26.6658 30.8183 26.5322 30.7827 26.3896 30.7782C26.3228 30.7782 26.2515 30.7693 26.1846 30.7648C25.7926 30.6178 25.3693 30.6267 24.9639 30.5688C24.6386 30.5242 24.3178 30.4218 23.9837 30.4619C23.7609 30.4396 23.5381 30.4351 23.3153 30.453C23.2752 30.4396 23.2351 30.4129 23.195 30.4129C22.4866 30.3728 21.7827 30.3282 21.1099 30.0609C21.0743 30.052 21.0431 30.0475 21.0074 30.0386C20.7535 29.8648 20.4594 29.7802 20.1876 29.651C20.152 29.6421 20.1208 29.6376 20.0851 29.6287C19.8445 29.4639 19.5817 29.348 19.3143 29.2366C19.2787 29.2322 19.2475 29.2277 19.2119 29.2188C19.1139 29.1163 18.9802 29.0807 18.851 29.0317C18.8153 29.0228 18.7842 29.0183 18.7485 29.0094C18.5614 28.8356 18.303 28.8178 18.0802 28.7153C18.0445 28.7153 18.0134 28.7064 17.9777 28.7064C17.9376 28.6752 17.8975 28.6351 17.853 28.6173C17.403 28.4747 16.9619 28.2965 16.4896 28.2119C16.4406 28.1807 16.3916 28.1807 16.3381 28.194C16.2401 28.154 16.1465 28.0827 16.0307 28.096C15.995 28.096 15.9639 28.096 15.9282 28.0916C15.8302 28.0515 15.7366 27.9802 15.6208 28.0025C15.554 28.0025 15.4871 27.9936 15.4158 27.9891C15.251 27.9312 15.0817 27.8955 14.9035 27.8911C14.801 27.8911 14.6985 27.8866 14.596 27.8822C14.4134 27.8153 14.2262 27.7797 14.0302 27.7975C13.8297 27.7663 13.6247 27.7574 13.4198 27.7841C12.8896 27.7619 12.3594 27.7574 11.8247 27.7886L11.7223 27.7752C11.7223 27.7752 11.6822 27.7351 11.6643 27.7173C11.6554 27.6817 11.651 27.6505 11.6421 27.6148C11.6421 27.5569 11.5931 27.5436 11.5619 27.5124C11.5619 27.4589 11.5619 27.4054 11.5619 27.352C11.602 27.3074 11.6599 27.2718 11.6599 27.2005C11.7134 27.147 11.7713 27.0891 11.8247 27.0356C11.9718 26.9688 12.0787 26.853 12.1856 26.7371C12.3015 26.7015 12.3683 26.6079 12.4396 26.5233C12.5688 26.4787 12.649 26.3673 12.7381 26.2782C12.7738 26.2515 12.8094 26.2247 12.845 26.2025C12.9074 26.1757 12.9564 26.1356 12.9876 26.0777C13.0099 26.0554 13.0322 26.0376 13.0544 26.0153C13.1837 25.9708 13.2639 25.8594 13.353 25.7658C13.3708 25.748 13.3931 25.7257 13.4109 25.7079C13.5757 25.6233 13.7183 25.5297 13.6158 25.3114C13.6158 25.2757 13.6069 25.2445 13.6025 25.2089C13.6426 25.0842 13.5445 25.0084 13.5 24.9104C13.5 24.8747 13.5 24.8391 13.5 24.799C13.4332 24.5228 13.3797 24.2421 13.2995 23.9703C13.2683 23.8678 13.1747 23.7876 13.0544 23.7653C12.6624 23.703 12.2703 23.645 11.8782 23.5827C11.8426 23.5827 11.8114 23.5738 11.7757 23.5693C11.6599 23.5247 11.5441 23.4846 11.4148 23.4846C11.3302 23.4802 11.2455 23.4713 11.1609 23.4668C11.0851 23.4089 11.0049 23.3643 10.9025 23.3822L10.6485 23.3643C10.4035 23.1683 10.3945 22.9233 10.4168 22.6203C10.4658 22.0233 10.4302 21.4173 10.4302 20.8158C10.4302 20.7223 10.4213 20.6287 10.4168 20.5396C10.4257 20.495 10.4346 20.446 10.4436 20.4015C10.7376 20.1252 11.1386 20.1832 11.4906 20.0896C11.651 20.0495 11.8203 20.0361 11.9807 19.9738C12.0653 19.9693 12.15 19.9604 12.2346 19.9559C12.3639 19.9559 12.4797 19.9158 12.5955 19.8713C12.6445 19.8713 12.698 19.8624 12.747 19.8579C12.8762 19.8579 13.001 19.8579 13.1079 19.7643C13.2327 19.7243 13.3262 19.6663 13.304 19.5104C13.3663 19.399 13.4109 19.2832 13.3886 19.1495C13.4242 19.1005 13.4198 19.047 13.4064 18.9936C13.7807 18.1515 13.7718 18.1158 13.0411 17.5099C12.6802 17.2114 12.3238 16.9129 11.9673 16.6144C11.5129 16.2356 11.5129 16.2267 11.7624 15.7144C11.7936 15.6609 11.8559 15.6297 11.8559 15.5584C12.1812 15.1084 12.4262 14.6049 12.6936 14.1193C12.8361 13.8609 12.9832 13.647 13.3218 13.7005C13.3574 13.7005 13.3886 13.7094 13.4242 13.7139C14.1148 14.048 14.85 14.2797 15.5762 14.5203C15.848 14.6094 15.9772 14.3421 16.102 14.1371C16.2044 14.0881 16.2668 13.9945 16.3381 13.9099C16.5386 13.7673 16.7391 13.6381 16.846 13.3752C16.9173 13.197 16.846 13.0723 16.8015 12.9431C16.5965 12.346 16.3738 11.749 16.1554 11.1564C16.1421 11.1163 16.1064 11.0896 16.0797 11.054C16.0752 11.0049 16.0663 10.9515 16.0619 10.9025C16.0619 10.8312 16.0619 10.7599 16.0619 10.6931C16.0663 10.6574 16.0708 10.6262 16.0797 10.5906C16.5832 10.2965 17.0866 10.0025 17.5856 9.70841C17.7015 9.64158 17.8129 9.56138 17.9242 9.49009C17.9822 9.49009 18.0089 9.45445 18.0312 9.4099C18.0579 9.40544 18.0846 9.4099 18.1025 9.39653C18.5436 9.11584 18.6148 9.16039 19.0025 9.61039C19.448 10.1272 19.8846 10.6574 20.3213 11.1787C20.3525 11.2589 20.4193 11.2589 20.4861 11.2544C20.5218 11.2945 20.553 11.2945 20.5886 11.2544C20.6599 11.2589 20.7267 11.2678 20.7891 11.2277C20.8827 11.2366 20.9584 11.1832 21.0386 11.1431C21.0787 11.1386 21.1143 11.1297 21.1544 11.1252C21.2213 11.1252 21.2614 11.0851 21.3015 11.0495L21.5554 11.0317C21.6579 11.0495 21.7381 11.0049 21.8139 10.947C21.8673 10.9559 21.9208 10.9559 21.9653 10.9203C22.1569 10.8356 22.1837 10.6663 22.2015 10.4881C22.2327 10.3723 22.2282 10.252 22.2193 10.1317C22.2505 10.1049 22.2728 10.0738 22.2683 10.0292C22.3708 9.90445 22.304 9.75742 22.3218 9.6193C22.4777 9.2896 22.451 8.92871 22.5178 8.58118C22.5891 8.19801 22.7807 8.00643 23.1639 8.04207C23.7743 8.09554 24.3891 8.09554 24.9995 8.02871C25.298 7.99752 25.5386 8.03762 25.7168 8.28712C25.7168 8.3896 25.699 8.49653 25.748 8.59455C25.7257 8.6792 25.7703 8.74158 25.8193 8.7995C25.8148 8.90197 25.8015 9.00891 25.8505 9.10693C25.8282 9.19158 25.8728 9.25395 25.9218 9.31188C25.9218 9.37871 25.9307 9.44999 25.9351 9.51683C25.9975 9.91782 26.0599 10.3144 26.1223 10.7153C26.1356 10.8089 26.198 10.8936 26.2693 10.9069C26.697 10.9916 27.0936 11.201 27.5302 11.25C27.6861 11.2678 27.8332 11.2366 27.9579 11.1297C28.1317 11.0718 28.2163 10.9203 28.3188 10.7866C28.5059 10.5594 28.6975 10.3411 28.8312 10.0782C28.8535 10.0515 28.8713 10.0203 28.8936 9.99356C29.1252 9.87772 29.2411 9.6594 29.3837 9.46336C29.4371 9.4099 29.495 9.35643 29.5485 9.30296C29.7802 9.21831 29.9807 9.27178 30.1901 9.40544C30.5822 9.65495 30.9921 9.86881 31.3975 10.1005C31.4332 10.1094 31.4643 10.1139 31.5 10.1228C31.5891 10.2431 31.7272 10.2876 31.8564 10.35C32.1906 10.5148 32.2752 10.6842 32.195 11.0049C32.1906 11.0406 32.1817 11.0718 32.1772 11.1074C32.1416 11.1564 32.0792 11.1876 32.0926 11.2634C32.0614 11.3124 32.0658 11.3614 32.0747 11.4148C32.0391 11.4639 31.9767 11.495 31.9901 11.5708C31.9812 11.6064 31.9767 11.6376 31.9678 11.6733C31.9188 11.7312 31.8787 11.798 31.8876 11.8782C31.8787 11.9139 31.8742 11.945 31.8653 11.9807C31.8252 12.0252 31.7718 12.0653 31.7807 12.1366C31.7762 12.1723 31.7718 12.2035 31.7673 12.2391C31.6782 12.3817 31.6337 12.5421 31.5802 12.698C31.5713 12.7337 31.5668 12.7648 31.5579 12.8005C31.5178 12.845 31.4643 12.8851 31.4733 12.9564C31.4688 12.9921 31.4643 13.0233 31.4599 13.0589C31.304 13.3574 31.3441 13.4643 31.696 13.6827C31.745 13.7673 31.8163 13.8342 31.8965 13.8876C31.9322 13.9233 31.9634 13.9589 31.999 13.9901C32.0346 14.0257 32.0658 14.0569 32.1015 14.0926C32.1371 14.1371 32.1549 14.1995 32.2173 14.2173C32.3733 14.3688 32.4802 14.6228 32.7742 14.5114C32.85 14.5247 32.8812 14.4624 32.9302 14.4267C32.9658 14.4223 32.997 14.4178 33.0327 14.4089C33.0995 14.3777 33.1708 14.351 33.2376 14.3198C33.2733 14.3153 33.3044 14.3109 33.3401 14.3064C33.4916 14.2396 33.6653 14.2307 33.8035 14.1193C33.8391 14.1104 33.8703 14.1059 33.9059 14.097C33.9817 14.1148 34.0129 14.048 34.0619 14.0124C34.0975 14.0124 34.1287 14.0079 34.1643 14.0035C34.2312 13.9723 34.3025 13.9411 34.3693 13.9099C34.4049 13.9054 34.4361 13.901 34.4718 13.8965C34.5609 13.8698 34.65 13.8431 34.7346 13.8119C35.2158 13.6203 35.2648 13.6337 35.5634 14.0257C35.6391 14.1639 35.7104 14.2975 35.7861 14.4356C35.8708 14.6139 35.951 14.7965 36.0757 14.948C36.0757 15.0416 36.1693 15.0772 36.196 15.153C36.2317 15.2733 36.2985 15.3757 36.3832 15.4604C36.3832 15.554 36.4767 15.5896 36.5035 15.6653C36.5391 15.7856 36.6059 15.8837 36.6906 15.9728C36.6906 16.0619 36.6906 16.1465 36.695 16.2356C36.5658 16.4317 36.3921 16.5787 36.2183 16.7257C36.0089 16.8995 35.804 17.0733 35.599 17.2515C35.5455 17.2782 35.4921 17.3049 35.4698 17.3673C35.4475 17.3896 35.4252 17.4074 35.403 17.4297C35.2604 17.501 35.149 17.6035 35.051 17.7282L35.0465 17.7327C34.9663 17.7594 34.904 17.8084 34.8594 17.8797C34.8371 17.902 34.8104 17.9243 34.7881 17.9421C34.6901 17.9955 34.5921 18.0668 34.6322 18.1916C34.7079 18.4411 34.7213 18.7129 34.846 18.949L34.8639 18.9624ZM28.6708 26.4074C28.7064 26.3718 28.7376 26.3361 28.7733 26.3049C28.8089 26.2693 28.8445 26.2381 28.8757 26.2025C29.4728 25.5742 29.9406 24.8614 30.2213 24.0327C30.2213 23.997 30.2257 23.9658 30.2302 23.9302C30.2658 23.8812 30.3282 23.85 30.3148 23.7742C30.346 23.7252 30.346 23.6718 30.3327 23.6183C30.3728 23.5203 30.4396 23.4267 30.4307 23.3109C30.4307 23.2752 30.4307 23.2441 30.4351 23.2084C30.4752 23.1104 30.5465 23.0168 30.5243 22.901C30.5554 22.7985 30.5554 22.696 30.5376 22.5936C30.7426 21.8317 30.6223 21.0876 30.4351 20.348C30.4351 20.3124 30.4351 20.2812 30.4307 20.2455C30.3861 20.0317 30.346 19.8223 30.2302 19.6307L30.2168 19.5282C30.2257 19.4569 30.1723 19.4213 30.1322 19.3723C30.1233 19.3366 30.1188 19.3054 30.1099 19.2698C29.9718 18.949 29.8381 18.6238 29.6153 18.3475C29.6243 18.2673 29.553 18.2406 29.5129 18.1916C29.4505 18.0624 29.3837 17.9376 29.2678 17.8441C29.2455 17.8218 29.2277 17.7995 29.2054 17.7817C29.1653 17.6792 29.1208 17.5812 29.0094 17.5322C28.9426 17.4297 28.8802 17.3183 28.7554 17.2738C28.7554 17.2381 28.7376 17.2203 28.702 17.2114C28.6886 17.1178 28.6084 17.0955 28.5416 17.0599C28.448 16.9663 28.3723 16.8594 28.2431 16.8148C28.1673 16.7302 28.1049 16.6322 27.9846 16.5965C27.9312 16.4941 27.8332 16.445 27.7262 16.4139C27.7084 16.4049 27.6906 16.4005 27.6772 16.3916C27.6639 16.3426 27.6371 16.3025 27.5747 16.3158C27.499 16.2891 27.4634 16.1955 27.3698 16.1955C27.3431 16.1733 27.3208 16.1465 27.2941 16.1287C26.5188 15.7233 25.6945 15.4515 24.8213 15.3713C24.6876 15.3579 24.545 15.2733 24.4069 15.3713C24.251 15.3713 24.095 15.3713 23.9391 15.3713C23.8544 15.3267 23.7742 15.2955 23.6896 15.3713C23.5871 15.3757 23.4846 15.3802 23.3822 15.3846C23.2173 15.3668 23.0747 15.4292 22.9233 15.4738C22.852 15.4648 22.7851 15.4559 22.7183 15.4916L22.5134 15.5807C22.4777 15.5807 22.4465 15.5896 22.4109 15.5941C22.2104 15.6163 22.0188 15.6743 21.845 15.7812C21.8094 15.7901 21.7782 15.7945 21.7426 15.8035C21.3817 15.9505 21.0252 16.1064 20.7089 16.3292C20.3837 16.5653 20.0094 16.7525 19.7733 17.0955C19.7554 17.0955 19.7465 17.0955 19.7421 17.1134C19.6218 17.1579 19.5416 17.2381 19.497 17.3584C19.4792 17.3629 19.4747 17.3762 19.4792 17.3896C19.4346 17.4119 19.3812 17.4252 19.35 17.4609C18.9846 17.9109 18.6282 18.3609 18.3876 18.8955C18.3832 18.9312 18.3742 18.9624 18.3698 18.998C18.2673 19.096 18.2317 19.2297 18.1827 19.3589C18.1738 19.3945 18.1693 19.4257 18.1604 19.4614C18.1203 19.5059 18.0668 19.546 18.0757 19.6173C18.0713 19.653 18.0668 19.6842 18.0624 19.7198C18.0178 19.8178 17.951 19.9114 17.9733 20.0272C17.9733 20.0629 17.9643 20.0941 17.9599 20.1297C17.9332 20.201 17.8663 20.25 17.8708 20.3346C17.8396 20.4015 17.8441 20.4683 17.8574 20.5396C17.804 20.6554 17.7906 20.7757 17.7817 20.9005C17.7371 21.0876 17.746 21.2747 17.7594 21.4619C17.6391 21.7426 17.746 22.0322 17.7549 22.3129C17.7639 22.6827 17.8173 23.0525 17.9643 23.4C17.9643 23.4356 17.9643 23.4668 17.9688 23.5025C18.1916 24.349 18.5703 25.1153 19.1317 25.7881L19.2965 25.9663C19.4837 26.2158 19.6886 26.4475 19.9515 26.6213C20.0005 26.6881 20.054 26.746 20.1252 26.7861C20.201 26.9153 20.3302 26.9777 20.4594 27.0312L20.5262 27.0936C20.5708 27.1648 20.6287 27.2139 20.7178 27.2228C20.7936 27.2495 20.8292 27.3431 20.9228 27.3431C21.4307 27.7129 22.0143 27.8955 22.6114 28.0515C22.647 28.0515 22.6782 28.0515 22.7139 28.0559C23.4535 28.2475 24.202 28.3455 24.9594 28.1584C25.0619 28.1762 25.1643 28.1762 25.2668 28.145C25.7079 28.0604 26.1401 27.949 26.5455 27.753C26.5812 27.7441 26.6124 27.7396 26.648 27.7307C27.3564 27.4277 27.998 27.0223 28.5594 26.4921C28.595 26.4564 28.6262 26.4252 28.6619 26.3896L28.6708 26.4074Z" fill="white"/>
<path d="M0 35.6168C0.0222772 35.1223 0.0267327 34.6277 0 34.1332C0 33.603 0 33.0728 0 32.5426C0.0222772 32.048 0.0267327 31.5535 0 31.0589C0 30.5465 0 30.0341 0 29.5173C0.0356436 29.4327 0.0222772 29.348 0.0178218 29.2589C0.0980198 29.1609 0.178218 29.0629 0.258416 28.9648C0.316337 28.9337 0.374257 28.9025 0.436634 28.8713C0.521287 28.8802 0.583663 28.8445 0.641584 28.7955C1.5995 28.7955 2.55743 28.7955 3.51089 28.7955C3.66683 28.8624 3.81832 28.9292 3.97426 28.996C4.0099 29.0361 4.04109 29.0718 4.07673 29.1119C4.13465 29.2455 4.13465 29.4015 4.23713 29.5218C4.24158 30.0341 4.24604 30.5465 4.25049 31.0589C4.25049 31.2638 4.25049 31.4733 4.25049 31.6782C4.24604 31.7361 4.23267 31.794 4.23267 31.8564C4.23267 34.6812 4.23267 37.5104 4.23267 40.3351C4.23267 40.3841 4.24158 40.4376 4.25049 40.4866C4.20149 40.7005 4.15693 40.9143 4.04109 41.1059L4.03218 41.1148C3.97426 41.1193 3.94307 41.1549 3.9297 41.2084C3.91188 41.2173 3.89406 41.2218 3.87624 41.2307C3.80941 41.2619 3.74257 41.2931 3.67129 41.3242C3.63564 41.3242 3.6 41.3287 3.56881 41.3332C2.57525 41.3332 1.58614 41.3332 0.592574 41.3332C0.556931 41.3332 0.525743 41.3287 0.490099 41.3242C0.271782 41.2262 0.111386 41.0703 0.0178218 40.852C0.0178218 40.6648 0.00891089 40.4733 0.00445545 40.2861C-0.0133663 39.248 0.0490099 38.2143 0.0133663 37.1762C-0.00445545 36.6594 0.00891089 36.1381 0.00445545 35.6213L0 35.6168Z" fill="white"/>
</g>
<defs>
<clipPath id="clip0_67_119">
<rect width="45" height="45.1069" fill="white"/>
</clipPath>
</defs>
</svg>
