<svg width="45" height="46" viewBox="0 0 45 46" fill="none" xmlns="http://www.w3.org/2000/svg">
<g clip-path="url(#clip0_71_33)">
<path d="M20.1189 45.1049C19.9005 45.1049 19.682 45.1049 19.4636 45.1049C18.9743 45.0131 18.4893 44.9126 18.0175 44.7466C17.3927 44.5238 16.8073 44.2049 16.2 43.9471C16.1651 43.8859 16.1039 43.8947 16.0471 43.899C15.8811 43.7723 15.6888 43.6893 15.4922 43.6151C15.4573 43.6063 15.4267 43.6019 15.3918 43.5932C15.2432 43.4752 15.0772 43.3879 14.8893 43.3442C14.8675 43.3311 14.85 43.3223 14.8282 43.3092C14.7801 43.2874 14.7364 43.2655 14.6884 43.2437C14.6534 43.1825 14.5922 43.1913 14.5354 43.1956C14.5049 43.1651 14.4918 43.1126 14.435 43.117C14.4 43.1083 14.3694 43.1039 14.3345 43.0951C14.1685 42.9641 13.9762 42.8854 13.7796 42.8112C13.749 42.8024 13.7141 42.7981 13.6835 42.7893C13.1024 42.4573 12.4908 42.1908 11.8748 41.9374C11.8573 41.9286 11.8398 41.9155 11.8223 41.9068C11.7786 41.8675 11.735 41.8413 11.6738 41.8369C11.6519 41.8238 11.6345 41.8151 11.6126 41.8019C10.9136 41.4699 10.2102 41.1335 9.51117 40.8015C9.47622 40.7971 9.44564 40.7927 9.41068 40.784C9.31457 40.6835 9.1835 40.6485 9.0568 40.6005C9.02185 40.5918 8.99127 40.5874 8.95631 40.5786C8.70729 40.4126 8.42767 40.3078 8.15243 40.1985C8.11748 40.1898 8.0869 40.1854 8.05195 40.1767C8.00826 40.1374 7.96894 40.085 7.89903 40.0937C7.86408 40.0893 7.8335 40.085 7.79855 40.0806C7.71991 40.0413 7.64127 39.9888 7.54515 39.9976C7.5102 39.9888 7.47962 39.9801 7.44466 39.9757C7.30486 39.9495 7.17816 39.8316 7.02088 39.9102C6.83301 39.7922 6.61457 39.801 6.40923 39.7617C6.10777 39.7049 5.77136 39.7748 5.5267 39.5214C5.5267 39.1631 5.53981 38.8049 5.53981 38.4422C5.53981 35.9694 5.53544 33.4966 5.53107 31.0238C5.58787 30.9539 5.66214 30.932 5.74515 30.9058C6.06408 30.8141 6.37864 30.7092 6.69321 30.6131C6.72816 30.6131 6.75874 30.6044 6.79369 30.6C6.92039 30.6175 7.02525 30.5388 7.13884 30.5039C7.15631 30.5039 7.17379 30.5039 7.19563 30.4995C7.3136 30.5214 7.40097 30.4558 7.49709 30.4121C7.53204 30.4121 7.56263 30.4034 7.59758 30.399C7.71117 30.4209 7.80292 30.3553 7.89903 30.3117C7.95146 30.3248 8.00389 30.3248 8.05195 30.2942C8.16991 30.268 8.28787 30.2374 8.40146 30.2112C8.46699 30.2068 8.5369 30.1981 8.60243 30.1937C8.75534 30.1631 8.90826 30.1413 9.06117 30.1063C9.44127 30.0189 9.83447 30.0364 10.2058 29.9097C10.2714 29.9097 10.3413 29.9097 10.4068 29.9053C10.8262 29.8704 11.2456 29.8354 11.6651 29.8005C11.8136 29.8267 11.9621 29.818 12.1107 29.7961C12.1631 29.7961 12.2155 29.7874 12.268 29.783C12.3117 29.8136 12.3641 29.8136 12.4121 29.7961C12.4646 29.7961 12.517 29.7874 12.5694 29.783C12.6175 29.8136 12.6655 29.8136 12.7136 29.7961C13.2859 29.8092 13.8583 29.8354 14.4262 29.901C14.4918 29.901 14.5573 29.9053 14.6272 29.9097C15.1646 30.0451 15.7107 30.1325 16.235 30.2985C16.2699 30.3029 16.3005 30.3073 16.3354 30.3117C16.401 30.3422 16.4709 30.3685 16.5364 30.399C16.5714 30.4034 16.6019 30.4078 16.6369 30.4121C16.7024 30.4427 16.7723 30.4689 16.8379 30.4995C16.8728 30.5039 16.9034 30.5083 16.9384 30.5126C17.6418 30.8316 18.3583 31.1199 19.0529 31.4651C19.6777 31.7752 20.3199 32.0461 21.0058 32.199C21.0845 32.2427 21.1718 32.2427 21.2592 32.2252C21.3685 32.282 21.482 32.3388 21.6131 32.2995C21.7966 32.3519 21.9801 32.3388 22.168 32.3257C22.6136 32.4175 23.068 32.4175 23.5223 32.4218C23.5748 32.4218 23.6228 32.4218 23.6752 32.4262C23.8238 32.4743 23.968 32.5311 24.1296 32.5005C24.2782 32.5442 24.4311 32.5442 24.5796 32.5267C24.6626 32.5617 24.7325 32.6228 24.833 32.601C24.9466 32.6447 25.0646 32.6316 25.1869 32.6272C25.6369 32.7189 26.0913 32.8107 26.5413 32.9024C26.6199 32.9461 26.7073 32.9374 26.7903 32.9286C26.8864 32.9723 26.9782 33.0379 27.0918 33.016C27.1267 33.016 27.1573 33.0248 27.1922 33.0291C27.2884 33.0728 27.3801 33.1384 27.4937 33.1165C27.5286 33.1209 27.5592 33.1252 27.5942 33.1296C27.7427 33.2782 27.9612 33.2345 28.1316 33.3218H28.1447H28.1578C28.2408 33.3524 28.3194 33.383 28.4024 33.4136C28.4374 33.418 28.468 33.4267 28.5029 33.4311C28.599 33.5359 28.7301 33.5665 28.8568 33.6146C28.9311 33.6408 28.966 33.7325 29.0578 33.7325C29.1408 33.7981 29.1888 33.9073 29.3068 33.9335C29.3592 33.9859 29.416 34.0427 29.4684 34.0951C29.5252 34.2218 29.6039 34.3354 29.7087 34.4272C29.735 34.4665 29.7568 34.5058 29.783 34.5495C29.7699 34.6238 29.8311 34.6544 29.866 34.7024C29.8573 34.7549 29.8529 34.8073 29.8879 34.851C29.9316 35.0694 29.9578 35.2922 29.8879 35.5107C29.8835 35.5456 29.8791 35.5762 29.8748 35.6112C29.8136 35.7466 29.7524 35.8777 29.6869 36.0131L29.4684 36.4631C29.4248 36.5068 29.3723 36.5418 29.368 36.6117C29.3155 36.6685 29.2631 36.7296 29.2063 36.7864C29.132 36.8607 29.0534 36.9393 28.9791 37.0136C28.9049 37.0704 28.8306 37.1272 28.7563 37.1884C28.4854 37.3238 28.1971 37.4112 27.9044 37.4767C27.817 37.4723 27.734 37.4592 27.651 37.5029C27.5985 37.5029 27.5461 37.4942 27.4937 37.4898C27.4282 37.4898 27.3583 37.4811 27.2927 37.4767C27.2621 37.4505 27.2316 37.4505 27.201 37.4767C27.1485 37.4767 27.0961 37.4767 27.0437 37.4723C26.8384 37.3937 26.6243 37.4199 26.4146 37.4024C25.8379 37.3587 25.2612 37.3238 24.6845 37.2888C24.584 37.2888 24.4835 37.2801 24.383 37.2801C24.099 37.2583 23.8194 37.184 23.5311 37.1971C23.3476 37.1621 23.1641 37.1665 22.9806 37.1796C22.7796 37.1534 22.5786 37.1228 22.3777 37.0966C22.3471 37.0748 22.3165 37.0748 22.2859 37.0966C22.2466 37.0966 22.2029 37.1097 22.1636 37.1053C21.5345 37.0311 20.9053 37.0573 20.2762 37.0791C20.1233 37.0748 19.9748 37.0485 19.8218 37.0966C19.6558 37.149 19.4942 37.0485 19.3325 37.0922C19.2888 37.1053 19.2233 37.0791 19.2233 37.1578C19.2233 37.2015 19.2539 37.2364 19.2932 37.2495C19.8306 37.4592 20.3243 37.7694 20.8748 37.9442C20.9097 37.9485 20.9403 37.9529 20.9752 37.9617C21.032 38.0097 21.0845 38.0796 21.1762 38.049C21.2112 38.0534 21.2418 38.0578 21.2767 38.0621C21.3248 38.0971 21.3553 38.1583 21.4296 38.1451C21.4777 38.1757 21.5257 38.1757 21.5782 38.1626C21.6437 38.1888 21.7136 38.2194 21.7791 38.2456C21.8272 38.25 21.8796 38.2587 21.9277 38.2631C22.0019 38.3243 22.0806 38.368 22.1811 38.3461L22.2816 38.3549C23.2689 38.6214 24.2738 38.6956 25.2918 38.6083C25.899 38.5558 26.5019 38.5078 27.0961 38.3549C27.1966 38.3723 27.2971 38.3723 27.3976 38.3418C27.5592 38.368 27.7034 38.2981 27.8476 38.2544C27.9306 38.2718 28.018 38.2675 28.101 38.2413C28.4155 38.1801 28.7388 38.1408 29.0447 38.0534C29.2893 37.9791 29.5646 37.9573 29.7655 37.7694C29.7961 37.7607 29.8267 37.7519 29.8573 37.7388C29.9184 37.7476 29.9447 37.717 29.9665 37.6689C29.9971 37.6602 30.0277 37.6515 30.0583 37.6384C30.1194 37.6471 30.1456 37.6121 30.1631 37.5641C30.3903 37.4942 30.5519 37.3369 30.6918 37.1534L30.7092 37.1403C30.9146 37.0354 31.0806 36.8782 31.2553 36.734C31.5961 36.45 31.9325 36.1617 32.3214 35.9388C32.5005 35.8296 32.7146 35.7903 32.8762 35.6505C32.933 35.6418 32.9898 35.6505 33.0248 35.5893C33.0597 35.5718 33.0903 35.5544 33.1252 35.5369C33.1602 35.5369 33.1908 35.5325 33.2257 35.5282C33.3262 35.5413 33.4049 35.4932 33.4748 35.4364C33.5228 35.432 33.5752 35.4277 33.6233 35.4189C33.7238 35.4364 33.8024 35.3927 33.8767 35.3359C34.0121 35.3184 34.1563 35.384 34.2786 35.2835C34.7811 35.2704 35.2398 35.4277 35.6854 35.6418C35.7029 35.6592 35.7248 35.6723 35.7422 35.6898C35.8471 35.8252 35.9956 35.917 36.0874 36.0699C36.3495 36.5068 36.2272 36.9087 35.9956 37.3019C35.9301 37.3587 35.8602 37.4155 35.7947 37.4811C35.668 37.6034 35.6418 37.7039 35.8252 37.8175C35.9519 37.8961 36.0393 38.0403 36.1442 38.1539L36.2097 38.2981C36.2097 38.2981 36.2359 38.3374 36.2447 38.3592C36.2359 38.4947 36.2228 38.6301 36.2141 38.7655C36.2053 38.8005 36.201 38.8311 36.1922 38.866C36.0655 39.0495 35.9388 39.233 35.8078 39.4209C35.799 39.434 35.7903 39.4471 35.7772 39.4646C35.6898 39.4864 35.6461 39.5519 35.6068 39.6218C35.5806 39.6481 35.5587 39.6699 35.5325 39.6961C35.4714 39.718 35.4277 39.7617 35.4058 39.8272C35.2442 39.9757 35.0869 40.1243 34.9252 40.2728C34.6981 40.4301 34.4709 40.583 34.2743 40.7752C33.9029 40.985 33.5709 41.2471 33.2214 41.4918C33.0117 41.6228 32.7976 41.7495 32.5966 41.8937C32.0985 42.2476 31.5568 42.5447 31.085 42.9422C31.0631 42.9641 31.0369 42.9816 31.0151 43.0034C30.7879 43.1214 30.5607 43.235 30.3641 43.401C30.3291 43.4097 30.2985 43.4141 30.2636 43.4228C30.1325 43.4884 29.9796 43.5058 29.8617 43.6019C29.8267 43.6107 29.7961 43.6194 29.7612 43.6238C29.4597 43.6981 29.1583 43.7898 28.8524 43.851C28.5684 43.9078 28.2757 43.8903 28.0049 44.0083C27.8869 43.9952 27.7689 43.9864 27.6553 44.0345C27.4937 44.0039 27.3495 44.0607 27.201 44.1087C27.1136 44.1 27.0306 44.0913 26.9476 44.135C26.3665 44.2049 25.7854 44.2879 25.2087 44.4146C25.1476 44.3971 25.0908 44.4015 25.0384 44.4364C24.9073 44.3971 24.7981 44.4539 24.6845 44.5107C24.6015 44.5107 24.5184 44.5194 24.4311 44.5238C24.2956 44.4888 24.1908 44.5631 24.0816 44.6112C23.9636 44.5981 23.8456 44.5893 23.732 44.6374C23.6097 44.6461 23.4918 44.6592 23.3825 44.7117C23.3301 44.7117 23.282 44.716 23.2296 44.7204C23.068 44.7073 22.9194 44.7335 22.7796 44.8121C22.6791 44.7947 22.5786 44.799 22.4782 44.8252C22.3034 44.8121 22.1374 44.8558 21.9757 44.9126C21.9102 44.9126 21.8403 44.9126 21.7748 44.917C21.2243 44.9825 20.6694 45.0481 20.1189 45.1136V45.1049Z" fill="white"/>
<path d="M37.9748 37.3413C37.7301 37.3413 37.1534 37.2495 37.0267 36.3757L37.018 36.3102L37.0049 36.1223C36.9612 35.9388 36.8869 35.7772 36.7733 35.6286L36.5592 35.3621V35.3447C36.5199 35.301 36.4806 35.2529 36.4456 35.1961L36.1398 34.7068L36.7602 33.8155L36.782 33.7675L36.9568 33.667C36.9917 33.6189 37.0267 33.5709 37.0617 33.5228L37.0835 33.4573L37.2626 33.2782C37.35 33.1995 37.4374 33.099 37.5335 32.9592L37.5553 32.9286L37.6427 32.6359L37.8218 32.5791L37.883 32.5049C37.9879 32.4 38.0883 32.2515 38.1976 32.0898L38.3068 31.9282C38.8791 31.1024 39.3816 30.2199 39.801 29.3024L39.8796 29.1277C40.0631 28.7257 40.2379 28.35 40.3383 27.9699L40.382 27.7777L40.4432 27.6684C40.465 27.6291 40.5175 27.5374 40.5306 27.4981L40.5524 27.3102L40.6398 27.1049L40.6748 26.8209L40.6835 26.8121V26.7684L40.7184 26.7073L40.7883 26.5282C41.1029 25.6981 41.2252 24.8155 41.3301 23.9068L41.3388 23.7364L41.3476 23.684C41.3607 23.6053 41.3782 23.5267 41.3913 23.4481C41.4131 23.3345 41.4437 23.2034 41.4349 23.151L41.4175 23.0374L41.4306 22.9238C41.4612 22.6617 41.4568 22.3864 41.4393 22.0544L41.4306 21.9058L41.4743 21.766C41.4961 21.6961 41.4961 21.635 41.4743 21.565L41.4306 21.4209L41.4393 21.2723C41.4568 20.9272 41.4524 20.6476 41.4306 20.3942V20.3374V20.2806C41.435 20.1102 41.4218 19.9879 41.3913 19.8917L41.3301 19.7126C41.3301 19.7126 41.3519 19.4985 41.3519 19.4854L41.3126 19.3762L41.3301 19.1752C41.3301 19.1752 41.3083 19.1228 41.2908 19.0835L41.2515 18.9743L41.234 18.6859L41.1816 18.6291L41.1335 18.1616V18.1267C41.1335 18.1267 41.1291 18.0874 41.0942 17.9825L41.0549 17.8646L41.0417 17.633C40.9762 17.2267 40.8364 16.816 40.6966 16.4272L40.666 16.3398L40.6485 16.2175L40.5655 16.0252V15.9947L40.5087 15.9335L40.4519 15.6845L40.4126 15.6364L40.3515 15.383L40.3078 15.3306L40.2597 15.1121C40.216 15.0117 40.1767 14.9112 40.1374 14.8063C40.1068 14.7233 40.0762 14.6403 40.0456 14.5791L39.8665 14.4612L39.8141 14.0592C39.8097 14.0155 39.766 13.9369 39.6874 13.8233L39.5869 13.6791L39.5694 13.5961L39.5214 13.5612L39.3947 13.2684C39.2898 12.9801 39.1369 12.7267 38.9447 12.4427L38.8529 12.3816L38.7131 12.0976C38.617 11.8529 38.4597 11.6083 38.1845 11.285L38.132 11.2238C38.132 11.2238 38.0097 11.001 37.9966 10.9835L37.7126 10.8175L37.6646 10.5335C37.6165 10.4811 37.5728 10.4286 37.5291 10.3762C36.9481 9.62476 36.2709 8.95631 35.5718 8.28349C35.5194 8.23544 35.4714 8.17864 35.4233 8.12621L35.1655 8.06942L35.0301 7.82039C35.0301 7.82039 34.8728 7.67621 34.8291 7.63689C34.7723 7.58447 34.7155 7.52767 34.6544 7.48398C34.5583 7.41408 34.4621 7.33544 34.3704 7.26117C34.2262 7.1432 34.1039 7.04272 34.0034 7.0034L33.8199 6.92913L33.6888 6.78058C33.632 6.71505 33.5097 6.64078 33.3786 6.56214C33.2694 6.4966 33.1646 6.43107 33.0641 6.3568C32.9636 6.3 32.8675 6.23883 32.7757 6.1733C32.6883 6.11214 32.5835 6.0466 32.5354 6.02913L32.4044 5.98981L32.2908 5.91116C31.8233 5.58786 31.299 5.3432 30.7136 5.08981L30.5083 5.10728L30.4733 5.07233L30.2898 5.09854L30.1369 4.85388C29.9272 4.74029 29.7044 4.65291 29.4728 4.60049L29.3636 4.57427H29.1801L29.0272 4.46068H28.966L28.8044 4.3733H28.4811L28.4068 4.38204L28.315 4.27282L28.1359 4.18981C27.8607 4.05874 27.5155 3.99757 27.1485 3.93204C27.0481 3.91456 26.9476 3.89709 26.8427 3.87961L26.467 3.8534L26.384 3.86214L26.3621 3.84466H26.3141L26.2529 3.77039C26.2136 3.77039 26.1699 3.76602 26.1306 3.76165L26.0345 3.74854L25.9427 3.71359C25.9209 3.70485 25.8947 3.69612 25.8684 3.68738L25.3398 3.66553L25.2393 3.64369C25.034 3.59563 24.8723 3.56942 24.7238 3.56942C24.6888 3.56942 24.6495 3.56942 24.6146 3.57379H24.5621L23.9723 3.56068L23.8893 3.5301H23.8762L23.85 3.56505H22.6398L22.1636 3.57379C22.1636 3.57379 22.0631 3.56942 22.0282 3.56942C21.8534 3.56942 21.6612 3.59126 21.4558 3.61748C21.268 3.63932 21.0801 3.66116 20.8922 3.6699C20.8835 3.6699 20.8748 3.6699 20.8704 3.6699L20.7917 3.74417L20.4204 3.76602L20.3155 3.89272L19.8655 3.86214C19.835 3.86214 19.8044 3.85777 19.7738 3.85777L19.7301 3.87087L19.6646 3.91893L19.4286 3.95825L19.3718 3.96699C18.935 4.02816 18.4981 4.14175 17.9738 4.32961L17.9126 4.35146L17.8471 4.36456L17.7029 4.47816H17.5631L17.3403 4.58738H17.2485L17.1699 4.62233L17.0432 4.79272L16.9252 4.77524L16.9034 4.80146L16.6762 4.78835L15.951 5.08981H15.9335L15.5141 5.27767L15.3961 5.4L15.1951 5.44806L14.9505 5.60534H14.9243L14.8631 5.64466L14.7408 5.6665C14.1204 5.99854 13.583 6.32621 13.0981 6.66262L12.8752 6.81553C12.5913 7.01214 12.3204 7.19563 12.0976 7.40534L11.6651 7.76359L11.5864 7.80291C11.5602 7.82476 11.5296 7.85971 11.4947 7.89903L11.3942 8.00388L11.3024 8.08252C11.2238 8.14806 11.1626 8.20049 11.0971 8.25291C10.9398 8.37961 10.8044 8.48884 10.7214 8.60243L10.6646 8.6767L10.5947 8.73786C10.4505 8.86019 10.3238 8.96942 10.2757 9.05243L10.1316 9.30582L9.95243 9.38447L9.89126 9.45437C9.44126 9.9568 8.97379 10.4942 8.58058 11.0709C8.51942 11.1626 8.45388 11.25 8.39272 11.3374C8.20922 11.5995 8.03447 11.8442 7.91651 12.0932V12.1282L7.86845 12.1937L7.75049 12.4383L7.68495 12.4602C7.37913 12.9233 7.1301 13.4214 6.92039 13.867L6.88544 14.0723L6.74563 14.2515C6.71505 14.2908 6.67136 14.3956 6.63204 14.4874L6.61893 14.5223L6.57087 14.7495L6.52282 14.8063L6.45291 15.1296L6.39612 15.1777L6.36117 15.5447L6.33495 15.5534L6.34806 15.6626L6.23884 15.7413V15.8592L6.2301 15.868L6.2432 15.9684L6.12524 16.0515V16.1432L6.13835 16.2699L6.04223 16.3398V16.366L5.90243 16.532L5.87621 16.6282C5.80631 16.7985 5.75825 17.0083 5.71019 17.2311C5.68398 17.3403 5.66214 17.4539 5.63592 17.5631L5.61408 17.8602V17.8733V17.9039L5.57913 17.9432L5.53107 18.0393L5.53981 18.3932L5.43932 18.5068L5.42185 18.8083L5.32573 19.1927C5.32573 19.2364 5.32573 19.267 5.32573 19.2976V19.385L5.29078 19.5204C5.25583 19.6689 5.22524 19.8087 5.23398 19.8874L5.24272 19.9485L5.22524 20.3985V20.6782L5.21214 20.7306V20.8136L5.19029 20.8267C5.08981 21.316 5.09418 21.8578 5.19466 22.5524L5.20777 22.5612C5.20777 22.5612 5.20777 22.6485 5.20777 22.6529L5.21651 22.7228V22.9762L5.23398 23.4044V23.4481C5.22087 23.6053 5.23398 23.7102 5.25583 23.7757L5.31699 23.9243V24.0859C5.31699 24.1209 5.31699 24.1908 5.31699 24.1908L5.41311 24.5752L5.43058 24.8985L5.49175 24.9816L5.51796 25.2481L5.5267 25.3922L5.5966 25.484L5.62282 25.8073C5.64903 25.9165 5.67524 26.0214 5.69709 26.1306C5.74078 26.3316 5.77573 26.5019 5.83689 26.6286L5.85874 26.6723L6.0335 26.7947L6.02039 26.8951V27.2053L6.05971 27.2796L6.2301 27.4019L6.21699 27.4981L6.2301 27.5068V27.6248L6.33495 27.7034L6.29563 28.0049L6.31748 28.1097L6.34369 28.1534L6.53592 28.3063L6.52719 28.6078L6.64078 28.8306L6.61893 29.1714L6.57961 29.6825L6.11651 29.9053C5.94175 29.9883 5.75825 30.0714 5.51796 30.0714C4.87573 30.0714 4.63981 29.5252 4.55243 29.3199C4.51748 29.2369 4.49126 29.1845 4.47379 29.1539H4.3733L4.23786 28.9791L4.1068 28.8961V28.8393L4.04126 28.8131L3.94952 28.7388L3.89272 28.7257L3.75728 28.634C3.72233 28.6121 3.69612 28.6078 3.69175 28.6078C2.72185 28.5859 2.45534 27.9 2.38544 27.6073L2.37233 27.5549L2.28058 27.45L2.25874 27.1398L2.15388 27.0175V26.7859L2.10146 26.6942V26.6767L2.04466 26.6068L2.0534 26.2704L2.00097 26.1568L1.97039 26.1175L1.95291 25.8117C1.95291 25.8117 1.95291 25.7723 1.95291 25.7549L1.89612 25.6369L1.90486 25.5932L1.82185 25.4971L1.83932 25.2874L1.76505 25.1694L1.81311 24.9335L1.75631 24.7631V24.6364C1.74757 24.5752 1.75194 24.5184 1.75194 24.4573L1.70388 24.3393L1.72573 24.1165C1.72573 24.0947 1.71262 24.0248 1.68204 23.9243L1.65583 23.8325L1.63398 23.4V23.3607C1.64709 23.0417 1.6034 22.7053 1.55971 22.417L1.55097 22.3515V22.1811L1.65583 19.5816L1.73884 19.0267L1.76068 18.5723L1.81748 18.4325C1.83495 18.3932 1.84369 18.3539 1.83932 18.3146V18.2752L1.87427 17.8165L1.93981 17.7379V17.6942L1.96602 17.4932L2.0534 17.1393C2.0534 17.1044 2.0534 17.0782 2.0534 17.0519V16.7374L2.15388 16.615L2.1801 16.2961L2.26311 16.2L2.29806 15.9422L2.38544 15.8549C2.45971 15.4835 2.58204 15.1427 2.69126 14.8369C2.74806 14.6752 2.80486 14.518 2.85291 14.3563L2.90534 13.9762L2.92719 13.9587L2.91408 13.8757L3.0801 13.6791L3.10194 13.5306L3.18495 13.4214L3.23301 13.1811L3.36845 13.0587L3.42087 12.7573L3.55194 12.6262C3.56942 12.5913 3.58253 12.5563 3.6 12.5214L4.25534 11.1583L4.32961 11.1015C4.3602 11.0359 4.39515 10.9704 4.43447 10.9049C4.54369 10.7345 4.63981 10.5597 4.74029 10.3806L4.94563 10.018L5.01553 9.95243L5.05486 9.8432L5.1466 9.7034L6.13835 8.34903L6.41796 8.00825L6.70631 7.63252L6.76311 7.5801C6.92476 7.43155 7.08204 7.24806 7.24369 7.05146C7.33544 6.94223 7.42282 6.83738 7.51893 6.73252L7.60631 6.63641L7.71553 6.57087C7.73738 6.54903 7.76796 6.51408 7.79854 6.47913C7.87282 6.39612 7.94709 6.31748 8.02573 6.2432L8.30971 5.97233L9.2534 5.08981L9.34952 5.03738C9.37573 5.0199 9.45 4.94563 9.49369 4.90194L9.61602 4.77524L9.7602 4.71408C10.4417 4.14175 11.2194 3.6 12.1369 3.05388C12.2811 2.9665 12.4252 2.87476 12.5694 2.78301L12.7617 2.66505L12.7791 2.65194L12.967 2.53398H13.0369L13.05 2.52524C13.1417 2.48155 13.2379 2.43786 13.2772 2.40728L13.4432 2.27184L13.6223 2.23689C13.6704 2.21068 13.7184 2.18883 13.7665 2.16699C13.8015 2.14951 13.8408 2.13641 13.8714 2.11456L14.0636 1.94417L14.3083 1.91796C14.4 1.88301 14.4874 1.84369 14.5354 1.80437L14.7015 1.66893L14.8762 1.63398L15.0117 1.5335L15.1427 1.52039L15.3262 1.37621L15.4136 1.38495L15.5272 1.19272L15.8767 1.23641L15.9597 1.21893C16.0384 1.19272 16.117 1.17087 16.1956 1.14466C16.3748 1.09223 16.5583 1.03544 16.733 0.965534C16.899 0.9 17.0476 0.873786 17.1568 0.851942C17.1786 0.851942 17.1961 0.843204 17.218 0.843204L17.384 0.716505H17.3971L17.4845 0.589806L17.5806 0.602913L17.6112 0.563592L17.9345 0.594175L18.0044 0.550485H18.0262L18.0568 0.528641L18.4893 0.493689L18.5767 0.432524L18.7689 0.415049L18.7951 0.388835L18.983 0.36699L19.0136 0.336408L19.5117 0.279612H19.5291C19.551 0.270874 19.7214 0.20534 19.7214 0.20534L20.2282 0.179126C20.25 0.170388 20.4248 0.104854 20.4248 0.104854L20.8223 0.0830097L20.8922 0.0873786C21.0189 0.0873786 21.1544 0.0567961 21.2942 0.0218447L21.3903 0H21.5083H25.2568L25.3835 0.0393204C25.4228 0.0524272 25.5015 0.0786408 25.5015 0.0786408L26.1175 0.109223L26.2529 0.16165C26.3053 0.183495 26.3272 0.183495 26.3272 0.183495H26.3796L26.8646 0.20534L26.9869 0.235922C27.2927 0.32767 27.6204 0.393204 27.9699 0.458738L28.3369 0.53301C28.6602 0.598544 28.9617 0.690291 29.2544 0.782039C29.368 0.81699 29.9971 1.00485 29.9971 1.00485L30.1893 1.03544L30.2286 1.0267L30.2942 1.07039L30.4165 1.04854L30.5257 1.12718L30.5913 1.17087L30.718 1.14903L30.9583 1.32816L31.1374 1.36748L31.2029 1.4199L31.3558 1.44612L31.4607 1.52913L31.6442 1.56845L31.7097 1.62087L31.832 1.64272L31.9937 1.75194C32.1466 1.8568 32.3388 1.94854 32.5879 2.03155L32.6447 2.04903L32.6971 2.07524C32.7932 2.1233 32.885 2.17136 32.9767 2.22379C33.1515 2.3199 33.3218 2.41165 33.4704 2.45971L33.6189 2.50777L33.7413 2.60388C33.9073 2.73058 34.1126 2.84417 34.3311 2.9665C34.4665 3.04078 34.6019 3.11505 34.7374 3.19806H34.8029L35.0257 3.38592L35.3796 3.42961L35.4757 3.66117C35.6985 3.8534 35.9519 4.03252 36.2184 4.19417L36.284 4.23349L36.3408 4.28592C36.3801 4.32087 36.4238 4.36019 36.4587 4.39951L36.7078 4.55243C36.7078 4.55243 36.9044 4.7534 36.9218 4.77087L37.0398 4.81893L37.1621 4.94126C37.3413 5.12039 37.5335 5.28641 37.7388 5.43495L37.7869 5.4699L37.8961 5.57476C37.9485 5.62718 38.001 5.67961 38.0534 5.73204C38.1364 5.81942 38.2194 5.9068 38.2718 5.93738L38.368 5.99417L38.9927 6.61893L39.0495 6.71942C39.0757 6.76311 39.1587 6.84612 39.2374 6.91602C39.2985 6.97282 39.3597 7.03398 39.4165 7.09515L39.5345 7.21748L39.5563 7.23058L39.6743 7.41408C39.6743 7.41408 39.6874 7.43592 39.7354 7.47087L39.8752 7.5801L39.9626 7.73301C40.0063 7.81165 40.0806 7.89903 40.1811 8.00388L40.4083 8.23544L40.465 8.33155C40.5655 8.50194 40.701 8.6767 40.8451 8.86019C40.9019 8.93447 41.0374 9.10922 41.0374 9.10922L41.0549 9.13981C41.0942 9.20097 41.1291 9.26214 41.1684 9.32767C41.2296 9.43252 41.2951 9.53738 41.3388 9.58107L41.4786 9.71214C41.4786 9.71214 41.566 9.92621 41.5748 9.94369C41.9068 10.4112 42.1689 10.8961 42.418 11.3723C42.4879 11.5034 42.5578 11.6345 42.6277 11.7655C42.7675 12.0189 42.8942 12.2767 43.0209 12.5345L43.1956 12.884L43.567 13.8233C43.5932 13.8757 43.6194 13.9631 43.6413 14.0505L43.8073 14.2383L43.7942 14.4087L43.8684 14.5573L43.8859 14.7583C43.8947 14.7845 43.899 14.8063 43.9034 14.8238L44.1131 15.0772L44.0913 15.2782L44.1743 15.418L44.1568 15.4922L44.1655 15.5621L44.3184 15.7063L44.301 15.785L44.3097 15.7937L44.2922 16.0165L44.349 16.1301L44.3796 16.3485V16.4359C44.4102 16.5495 44.432 16.6587 44.4495 16.7723C44.4932 17.017 44.5369 17.2442 44.6112 17.4277L44.6636 17.5544L44.6942 17.9825C44.7029 18.0087 44.7116 18.0306 44.7204 18.0568L44.7684 18.1835L44.7947 18.6903C44.8034 18.7121 44.8689 18.8869 44.8689 18.8869L44.8908 19.3718V19.4243C44.8777 19.5597 44.9083 19.7257 44.9432 19.9223L44.9738 20.0971V23.2951L44.9476 23.4C44.917 23.5223 44.9083 23.6752 44.8951 23.8544L44.8646 24.5272L44.8034 24.6408V24.7413L44.7684 24.8461C44.7684 24.8767 44.7684 24.9073 44.7684 24.9422C44.7684 24.9947 44.7684 25.0471 44.7684 25.0995V25.3267L44.6549 25.5277C44.6417 25.5583 44.6243 25.6718 44.6155 25.7461C44.6024 25.8466 44.585 25.9471 44.5631 26.0432C44.5456 26.1131 44.5282 26.1786 44.5107 26.2485C44.4976 26.2879 44.4845 26.3272 44.4801 26.3709L44.4888 26.4626L44.4757 26.515L44.4583 26.6549L44.3883 26.9476L44.4146 27.0961L44.2748 27.3714V27.6816L44.2922 27.817L44.1612 27.9087V27.9175L44.1699 27.9481L44.0825 28.0922L44.0956 28.2714L43.9252 28.4985C43.9252 28.4985 43.8947 28.599 43.8816 28.634V28.6908L43.7811 28.9529V29.049L43.6762 29.2675L43.6849 29.5121L43.5626 29.6388L43.6019 29.901L43.4053 30.0233L43.2612 30.268C43.1519 30.4602 43.0558 30.6655 42.9772 30.8971L42.9903 31.1854L42.9029 31.2553L42.9553 31.3777L42.6015 31.6748L42.5927 31.6879L42.5272 31.8277L41.6359 33.3699L41.5835 33.4223L41.4524 33.6451C41.4524 33.6451 41.3913 33.7194 41.3825 33.7282L41.2427 33.9597L41.1947 34.0121L41.0636 34.2306L40.5568 34.9034L40.5437 34.9689L40.2947 35.2267C40.2641 35.2573 40.2335 35.2835 40.2116 35.3141L40.0587 35.633L39.9583 35.6636C39.9058 35.7204 39.8534 35.7728 39.7966 35.8252C39.7092 35.9126 39.6218 35.9956 39.5869 36.0568L39.5476 36.1267L39.4951 36.1879C39.4252 36.2665 39.351 36.3408 39.2723 36.4107C39.233 36.4456 39.1937 36.4762 39.1631 36.5199L39.1019 36.6422L39.0189 36.7209L38.7131 37.0311L38.6607 37.0704C38.5209 37.1752 38.2893 37.35 37.9573 37.35L37.9748 37.3413Z" fill="white"/>
<path d="M37.9748 36.9044C37.5466 36.9044 37.4811 36.4587 37.4592 36.3146L37.4374 36.0481C37.3893 35.8165 37.2845 35.5849 37.1228 35.3709L36.9699 35.183L36.9612 35.1437C36.9087 35.0913 36.8563 35.0432 36.8126 34.9733L36.6597 34.7286L37.0529 34.165L37.0966 34.1476L37.1228 34.0864L37.2495 34.0121C37.2495 34.0121 37.2801 33.9684 37.3019 33.9379C37.3325 33.8898 37.3675 33.8461 37.4024 33.8024L37.4461 33.75L37.4549 33.7325L37.5466 33.6189C37.6602 33.5184 37.765 33.3917 37.883 33.2301L37.9529 33.134L37.9922 33.0248L38.0665 32.9898L38.1058 32.9417L38.1189 32.9199L38.1888 32.8325C38.3199 32.6971 38.4335 32.5311 38.5558 32.3563L38.6607 32.199C39.2505 31.3515 39.766 30.4471 40.1942 29.5078L40.2728 29.333C40.465 28.9136 40.6485 28.5204 40.7578 28.1053L40.7927 27.9568L40.8233 27.9044C40.8888 27.782 40.9413 27.6816 40.9587 27.5898L40.9762 27.45L41.0636 27.2447L41.0898 27.0437L41.1422 26.9738L41.1335 26.8995L41.1597 26.8646L41.151 26.8296L41.199 26.7029C41.5311 25.816 41.6621 24.8549 41.7714 23.9417V23.7976L41.7801 23.7714C41.7932 23.6971 41.8063 23.6228 41.8238 23.5529C41.8587 23.3825 41.8893 23.234 41.8718 23.1029L41.8631 23.0461V22.9893C41.9024 22.6966 41.8981 22.4039 41.8806 22.05V21.9757L41.8981 21.9058C41.9417 21.7529 41.9417 21.6087 41.8981 21.4558L41.8762 21.3816V21.3073C41.8981 20.9403 41.8937 20.6432 41.8675 20.368V20.3374V20.3068C41.8762 20.084 41.8544 19.9092 41.8019 19.7607L41.7714 19.6689L41.7801 19.5728C41.7845 19.516 41.7932 19.4417 41.7888 19.4199L41.767 19.3413V19.2277C41.767 19.1578 41.7408 19.0616 41.7058 18.9568L41.6883 18.9L41.6709 18.6116C41.6709 18.6116 41.6709 18.5461 41.6709 18.5243L41.601 18.45L41.5704 18.1573C41.566 18.035 41.5354 17.9388 41.5049 17.8515L41.483 17.7903L41.4699 17.5762C41.4044 17.1612 41.2515 16.7112 41.1029 16.2917L41.0854 16.2481L41.068 16.1126L40.9849 15.916L40.9718 15.8155L40.9107 15.7413L40.8583 15.4922L40.8233 15.4485L40.7927 15.335L40.7578 15.1864L40.7228 15.1427L40.6922 15.0248L40.6835 14.9723C40.6354 14.8675 40.5961 14.7583 40.5568 14.6534C40.5044 14.5049 40.4563 14.3782 40.3864 14.2733L40.2859 14.2078L40.2553 14.0024C40.2379 13.8539 40.1505 13.7053 40.0544 13.5699L40.0063 13.4956L39.967 13.3121L39.8709 13.2422L39.8097 13.0893C39.6874 12.7529 39.5039 12.4558 39.2723 12.1194L39.2243 12.0888L39.1325 11.9316C38.9927 11.5646 38.7481 11.25 38.534 10.9922L38.5078 10.9616L38.4291 10.8175C38.3854 10.7345 38.3417 10.6515 38.3068 10.634L38.1277 10.5291L38.0927 10.3238C38.0927 10.3238 38.0403 10.2583 38.0053 10.2233C37.966 10.1796 37.9267 10.1359 37.8917 10.0922C37.2932 9.31893 36.5767 8.61116 35.8908 7.95146C35.8471 7.90777 35.8078 7.86408 35.7641 7.81602C35.7291 7.7767 35.6767 7.7199 35.6592 7.7068L35.467 7.66311L35.3752 7.49272L35.3097 7.4665L35.266 7.41408L35.1437 7.30048C35.0738 7.23495 35.0039 7.16942 34.9252 7.11262C34.8335 7.04709 34.7461 6.97718 34.6587 6.90291C34.4971 6.77184 34.3442 6.64514 34.1825 6.57961L34.0908 6.54029L34.0252 6.46602C33.9248 6.35243 33.7806 6.26505 33.6146 6.16456C33.5097 6.09903 33.4049 6.03786 33.3044 5.96359C33.2083 5.91116 33.1165 5.85 33.0248 5.78883C32.8937 5.70146 32.7801 5.62281 32.6665 5.59223L32.601 5.57039L32.5442 5.53107C32.0243 5.16845 31.4476 4.91068 30.8053 4.63107L30.7879 4.62233L30.6699 4.63544L30.6218 4.58738L30.5083 4.60485L30.434 4.48689L30.3641 4.46068C30.115 4.32087 29.8485 4.22039 29.5733 4.15485L29.4116 4.11553H29.3243L29.1976 4.01505L29.0927 4.00631L28.9092 3.91019H28.6602L28.6383 3.88398L28.5859 3.89272L28.5204 3.81408H28.4199L28.3238 3.77039C27.9917 3.60874 27.6204 3.54757 27.2228 3.47767C27.1136 3.46019 27.0087 3.43835 26.8995 3.42087L26.5369 3.39903L26.5238 3.38155H26.4801L26.4146 3.30728C26.3796 3.30728 26.3447 3.31165 26.3097 3.31165C26.2704 3.31165 26.2354 3.31165 26.1961 3.30291H26.1481L26.1 3.28107C26.0345 3.25485 25.9558 3.22864 25.9121 3.22864L25.3879 3.20679L25.3485 3.19806C25.1126 3.14126 24.916 3.11505 24.7325 3.11505C24.6845 3.11505 24.632 3.11505 24.584 3.11942H24.5316L24.0641 3.10631L23.9898 3.0801C23.9549 3.06699 23.9243 3.06262 23.8937 3.06262C23.8631 3.06262 23.8282 3.06699 23.7932 3.0801L23.7189 3.10631H22.6442L22.1942 3.11505C22.1199 3.11505 22.0762 3.11505 22.0325 3.11505C21.8316 3.11505 21.6262 3.14126 21.4078 3.16747C21.2286 3.18932 21.0539 3.21116 20.8748 3.2199C20.8398 3.2199 20.7044 3.2199 20.7 3.2199L20.6126 3.30291L20.4422 3.31165H20.3985C20.3592 3.31165 20.3199 3.31165 20.2806 3.31165H20.2544L20.1583 3.38592L20.1233 3.42961L19.8961 3.4165C19.8568 3.4165 19.8175 3.41213 19.7782 3.41213C19.7432 3.41213 19.7126 3.41213 19.6951 3.42087L19.5947 3.44709H19.5684L19.516 3.48204L19.3806 3.51262L19.2801 3.52573C18.8476 3.58689 18.3888 3.70485 17.834 3.90582L17.8034 3.91893L17.6723 3.94078L17.5762 4.01942H17.4757L17.2573 4.13301L17.1655 4.12427L16.9602 4.23349H16.9209L16.8641 4.30777L16.7811 4.29466L16.7505 4.32524H16.6238L15.8898 4.6267H15.8636L15.7107 4.6966L15.2738 4.8932L15.1864 4.98495L15.0379 5.0199L14.8456 5.1466H14.8194L14.7189 5.20777L14.6141 5.22524C13.9544 5.57912 13.382 5.92427 12.8665 6.28252L12.6481 6.43544C12.351 6.64078 12.067 6.83301 11.8223 7.06456L11.4422 7.37913L11.4029 7.40097C11.3417 7.43155 11.2762 7.50146 11.2019 7.5801L11.1277 7.65874L11.0403 7.74175C10.9748 7.79854 10.9136 7.85097 10.8524 7.89903C10.682 8.03883 10.5204 8.1699 10.4024 8.32281L10.3762 8.35777L10.3413 8.38835C10.1578 8.54563 10.0136 8.66796 9.92621 8.82087L9.85631 8.94757L9.72524 9.00437C9.72524 9.00437 9.67718 9.0568 9.65097 9.08738L9.59854 9.14417C9.1398 9.65534 8.65922 10.2102 8.25291 10.8044C8.19175 10.8917 8.13058 10.9791 8.06942 11.0665C7.87281 11.3461 7.68495 11.6083 7.54951 11.8922L7.47087 12.0626L7.44029 12.0714C7.06893 12.6131 6.77184 13.2029 6.53155 13.7141L6.50534 13.867L6.43543 13.9544C6.36553 14.0417 6.31747 14.1597 6.26068 14.2951L6.2301 14.3694L6.19514 14.5311L6.14709 14.5879L6.08155 14.8718L6.00291 14.9417L5.98107 15.2432L5.92427 15.265V15.2825L5.88932 15.3262L5.90679 15.4442L5.82378 15.5053V15.6451L5.7932 15.6714L5.80194 15.75L5.71893 15.8068V15.951L5.68835 15.9728L5.69709 16.0515L5.61844 16.1083V16.1388L5.53107 16.3005L5.49611 16.4447C5.40874 16.65 5.36068 16.8816 5.30388 17.1262C5.27767 17.2442 5.25145 17.3621 5.22087 17.4801L5.2034 17.7248L5.16408 17.7772L5.17281 17.8121L5.10291 17.9563C5.10728 17.9563 5.11165 17.9782 5.11165 18V18.2272L5.02864 18.3277C5.02864 18.3495 5.02864 18.3801 5.02864 18.4063L5.01116 18.734L4.91505 19.1141L4.89757 19.149C4.89757 19.149 4.90194 19.1665 4.90194 19.1796C4.90194 19.2146 4.90194 19.3282 4.90194 19.3282L4.8801 19.4199C4.83641 19.6121 4.79709 19.7825 4.81456 19.9311V19.9616L4.80145 20.3854V20.6257L4.79272 20.6738C4.66602 21.2592 4.66602 21.8883 4.79709 22.7184V22.7534L4.80145 22.9806L4.81456 23.3738C4.80145 23.6447 4.81456 23.8019 4.87136 23.933L4.90194 24.0073V24.0859C4.90194 24.1209 4.90194 24.1558 4.90194 24.1864C4.90194 24.2083 4.90194 24.2257 4.90194 24.2476L5.00243 24.632L5.02427 25.0427L5.08107 25.117L5.10291 25.2699L5.11602 25.4796L5.10291 25.5364L5.18155 25.6369L5.2034 25.7636L5.21213 25.8728C5.24272 25.9864 5.26456 26.1 5.29077 26.218C5.33883 26.4364 5.38252 26.6417 5.46553 26.8165L5.50485 26.8995V26.9432L5.58786 27L5.57912 27.0786L5.60534 27.1005V27.3146L5.71019 27.5068V27.5505L5.78883 27.6073L5.7801 27.6859L5.81505 27.7121V27.8519L5.89369 27.9131L5.87621 28.0311L5.92864 28.2757V28.2845L5.95485 28.3194L6.02912 28.4461L6.11213 28.516V28.7126L6.21699 28.9311L6.18204 29.4029L5.95048 29.5165C5.7932 29.5908 5.68398 29.6432 5.53544 29.6432C5.18155 29.6432 5.05485 29.3505 4.96747 29.1539C4.87573 28.9485 4.81019 28.8306 4.71844 28.7694L4.65728 28.7301H4.60485L4.55243 28.6646H4.54369V28.6558L4.47378 28.5684C4.4432 28.5248 4.39514 28.4942 4.32961 28.468L4.27281 28.4417L4.22476 28.4024C4.22476 28.4024 4.18544 28.3675 4.16796 28.35L4.07621 28.3282L4.00631 28.2845C3.91019 28.2233 3.80534 28.184 3.70922 28.184C3.09757 28.1709 2.88786 27.8126 2.81796 27.5199L2.80048 27.3845L2.72184 27.2883L2.7 26.9825L2.59077 26.8602L2.60825 26.6767L2.56893 26.6068L2.57767 26.55L2.51213 26.4714V26.301V26.2485C2.51213 26.2223 2.51213 26.1961 2.51213 26.1743L2.44223 26.0345L2.45097 26.017L2.42476 25.982L2.40728 25.816C2.40728 25.7854 2.40728 25.7505 2.40728 25.7199C2.40728 25.6981 2.40728 25.6806 2.40728 25.6587L2.35048 25.5408L2.3767 25.4621L2.28495 25.3573L2.30243 25.1869L2.24563 25.0951L2.28058 24.9248C2.28058 24.9248 2.25874 24.8417 2.24126 24.7937L2.20631 24.6888V24.6277C2.20194 24.5752 2.20631 24.5272 2.20631 24.4748C2.20631 24.4398 2.20631 24.3874 2.20631 24.3743L2.16262 24.2738L2.17573 24.1733C2.18446 24.0728 2.15388 23.9505 2.11893 23.8238L2.10582 23.7757L2.08835 23.4306C2.10145 23.0374 2.0534 22.6748 2.00534 22.3689V22.334L2.00097 22.1985L2.10145 19.6427L2.18446 19.0879L2.20194 18.6859L2.22815 18.616C2.26747 18.5199 2.28495 18.4282 2.28495 18.3277L2.30679 18.0087L2.39854 17.8908C2.39854 17.8908 2.39854 17.8908 2.39417 17.8908C2.38544 17.8908 2.38544 17.8515 2.38544 17.8165V17.7335L2.40291 17.585L2.49466 17.218L2.50777 17.183C2.5034 17.183 2.5034 17.1655 2.49903 17.1481V17.0563V16.899L2.58641 16.7942L2.61262 16.4752L2.69126 16.3835L2.72184 16.1432L2.80048 16.0646C2.86165 15.6714 2.98835 15.3218 3.11068 14.9811C3.17621 14.8019 3.23738 14.6272 3.2898 14.4437L3.32476 14.1772L3.39903 14.1029L3.39029 14.0112L3.49951 13.8626L3.52573 13.6966C3.52573 13.6966 3.6 13.6005 3.60437 13.6005L3.64369 13.3995L3.74854 13.3034C3.74854 13.3034 3.78349 13.2204 3.7966 13.1767V13.1592L3.84029 12.9583L3.93641 12.8621L3.94514 12.8447C3.96699 12.7966 3.98446 12.7485 4.00631 12.7005L4.61359 11.4291L4.70097 11.3636C4.70097 11.3636 4.70971 11.3286 4.72281 11.3024C4.74903 11.2413 4.77961 11.1801 4.81456 11.1277C4.92815 10.9485 5.03301 10.765 5.13349 10.5816L5.30388 10.2801L5.35194 10.232C5.38689 10.1971 5.41747 10.1447 5.44806 10.0617L5.4699 10.0005L6.48349 8.6199L6.76747 8.27039L7.03835 7.91214L7.06893 7.88592C7.25243 7.71553 7.41408 7.5233 7.58883 7.31359C7.67621 7.20874 7.76359 7.10388 7.85534 7.0034L7.89903 6.95534L7.95146 6.92039C8.00825 6.88544 8.06505 6.8199 8.13058 6.74563C8.19175 6.67573 8.25728 6.60582 8.32718 6.54466L8.6199 6.26942L9.5199 5.42621L9.56796 5.4C9.65097 5.35631 9.72961 5.2733 9.81699 5.18592L9.87815 5.12476L10.0005 5.0767C10.6733 4.50437 11.451 3.96262 12.3728 3.41213C12.5214 3.32476 12.6699 3.22864 12.8184 3.13689L13.1155 2.94903H13.1549L13.2073 2.92281C13.3733 2.84417 13.4825 2.79612 13.5655 2.72621L13.6485 2.65631L13.784 2.6301C13.8408 2.59951 13.9019 2.56893 13.9631 2.54272C14.0461 2.5034 14.116 2.47281 14.1553 2.43786L14.2515 2.35485L14.4306 2.32427C14.5791 2.26747 14.7189 2.21068 14.8194 2.12767L14.9024 2.06213L15.0684 2.02718L15.182 1.9398L15.3218 1.9267L15.466 1.81311L15.5534 1.82184L15.715 1.73883L15.7718 1.64272L15.9116 1.66019L16.1083 1.6165C16.1607 1.59903 16.2481 1.57281 16.3398 1.5466C16.532 1.4898 16.7286 1.43301 16.9121 1.35437C17.0345 1.30631 17.1481 1.28446 17.2529 1.26699C17.3316 1.25388 17.4189 1.23641 17.4451 1.21456L17.5544 1.13155H17.6461L17.7073 1.0398L17.7816 1.04854L17.8209 1.00048L18.0524 1.02233L18.118 0.983008L18.1748 0.991746L18.2359 0.943688L18.3801 0.926212L18.6597 0.904368L18.734 0.847572L18.9 0.821358C18.9 0.821358 18.9655 0.821358 18.9786 0.821358L19.0136 0.786406C19.0136 0.786406 19.184 0.768931 19.1927 0.768931L19.2233 0.738348L19.5466 0.703397H19.5772C19.6252 0.703397 19.7039 0.672814 19.765 0.65097L19.8306 0.629125L20.2806 0.60728C20.3286 0.60728 20.4073 0.576698 20.4728 0.554853L20.534 0.533008L20.8311 0.515533C20.8311 0.515533 20.9097 0.519902 20.9316 0.519902C21.0801 0.519902 21.2417 0.480581 21.4121 0.441261L21.4602 0.428154H21.5257H25.2087L25.3791 0.48495C25.4228 0.498057 25.484 0.524271 25.5058 0.524271L25.567 0.511164L26.0432 0.537377L26.1087 0.563591C26.1961 0.598542 26.2748 0.616018 26.3403 0.616018H26.3665H26.4233L26.8034 0.637863L26.8733 0.655338C27.201 0.755824 27.5417 0.821358 27.8956 0.891261L28.2583 0.965533C28.5597 1.0267 28.8524 1.11845 29.1364 1.20145C29.25 1.23641 29.368 1.27136 29.4816 1.30631C29.5908 1.33689 29.9053 1.43301 29.9053 1.43301L30.0888 1.46359L30.1325 1.49854H30.15L30.2112 1.53786L30.3335 1.51602L30.434 1.59903H30.4471L30.5083 1.63835L30.6306 1.6165C30.6306 1.6165 30.7791 1.73446 30.7835 1.73883L30.9539 1.77379L31.0282 1.83495L31.1898 1.86116C31.1898 1.86116 31.2816 1.93544 31.2859 1.93544L31.4607 1.97476L31.535 2.03592L31.6791 2.05777L31.7578 2.11019C31.9456 2.23689 32.1684 2.34612 32.4568 2.44223L32.483 2.45097L32.5092 2.46408C32.601 2.50777 32.6883 2.55582 32.7757 2.60388C32.9723 2.70874 33.1558 2.80922 33.3437 2.87039L33.418 2.89223L33.4791 2.94029C33.6714 3.08883 33.8942 3.21116 34.1257 3.34223C34.2699 3.42087 34.4097 3.49951 34.5495 3.58689L34.5801 3.60437L34.6019 3.62621H34.6413L34.7592 3.7267C34.8029 3.76602 34.8379 3.7966 34.851 3.80097L35.1 3.83155L35.1306 3.93641L35.1524 3.95388C35.4058 4.1767 35.6898 4.38204 35.9913 4.56116L36.0262 4.58301L36.0568 4.60922C36.0961 4.64417 36.1311 4.67912 36.166 4.71845C36.1835 4.73592 36.201 4.75777 36.2228 4.77524L36.2796 4.79272L36.3015 4.81019L36.4413 4.89757L36.5592 5.01553C36.6204 5.0767 36.6772 5.13786 36.7165 5.15534L36.7951 5.19029L36.8563 5.25146C37.0485 5.44806 37.2626 5.62718 37.4854 5.78883L37.5073 5.80631L37.5903 5.88495C37.6383 5.93301 37.6864 5.98107 37.7345 6.03349C37.8437 6.15146 37.9398 6.25194 38.049 6.31311L38.0971 6.34369L38.6388 6.88544L38.6694 6.93786C38.7262 7.03835 38.8223 7.1301 38.9359 7.23495C38.9927 7.28738 39.0495 7.34417 39.1019 7.3966L39.1675 7.4665L39.1893 7.5233L39.2461 7.55388L39.3029 7.64563C39.3379 7.70243 39.3903 7.75485 39.4646 7.81165L39.5345 7.86408L39.5782 7.93835C39.6437 8.05631 39.7398 8.16553 39.8578 8.29223L40.05 8.48883L40.0762 8.53689C40.1898 8.73786 40.3383 8.92136 40.4956 9.12233C40.5524 9.19223 40.6092 9.2665 40.6616 9.33641C40.7184 9.42379 40.7534 9.48058 40.7883 9.54175C40.8714 9.68592 40.9456 9.80825 41.0374 9.89563L41.1073 9.96116C41.1073 9.96116 41.1641 10.101 41.1728 10.1272C41.5005 10.5816 41.7714 11.084 42.0291 11.5689C42.099 11.7 42.1689 11.8354 42.2432 11.9665C42.3786 12.2155 42.501 12.4646 42.6277 12.718L42.785 13.0369L43.1607 13.9718C43.1869 14.0243 43.2044 14.1029 43.2262 14.1772C43.235 14.2034 43.2393 14.234 43.2481 14.2602L43.3704 14.3956L43.3573 14.4961L43.4447 14.6621L43.4578 14.8107C43.4927 14.933 43.5146 15.016 43.5495 15.0553L43.6675 15.1951L43.65 15.3612L43.7155 15.466L43.7024 15.5141L43.7286 15.549L43.7549 15.7107C43.7549 15.7107 43.7549 15.7369 43.7549 15.7456L43.8466 15.833L43.8335 15.8898L43.8466 15.9029V16.0777L43.9252 16.2262L43.9515 16.3529L43.9602 16.4709C43.9864 16.5888 44.0083 16.7068 44.0301 16.8291C44.0782 17.0956 44.1262 17.349 44.218 17.5762L44.2442 17.6417L44.2704 17.9694V18.0044C44.2704 18.0481 44.301 18.1267 44.3228 18.1966L44.3447 18.2578L44.3665 18.6728C44.3665 18.7515 44.3971 18.8301 44.4189 18.8956L44.4451 18.9612L44.4626 19.3544V19.3762C44.4495 19.5641 44.4845 19.765 44.5238 19.9791L44.55 20.1146V23.2209L44.5369 23.2733C44.4976 23.435 44.4845 23.6141 44.4714 23.8019V23.85L44.4451 24.3874L44.4015 24.4748C44.4015 24.4748 44.384 24.5359 44.384 24.5883V24.6539L44.3621 24.715C44.3447 24.7631 44.349 24.8461 44.3534 24.9335C44.3534 24.9816 44.3534 25.0252 44.3534 25.0733V25.1869L44.2966 25.2874C44.2442 25.3791 44.2267 25.5102 44.2049 25.6587C44.1917 25.7505 44.1786 25.8379 44.1568 25.9252C44.1437 25.9864 44.1262 26.0432 44.1087 26.1044C44.0825 26.1961 44.0563 26.2879 44.0607 26.3447V26.3927L44.0432 26.5544L43.9558 26.917L43.9646 26.9913L43.9078 27.1354L43.851 27.2447V27.4893L43.8248 27.5112L43.8379 27.5898L43.7505 27.651V27.7515L43.7024 27.8083L43.7155 27.8607L43.65 27.9655L43.6631 28.1053L43.5583 28.2626C43.5583 28.2626 43.5277 28.3456 43.5146 28.3893L43.4578 28.5597V28.5859L43.4097 28.7519L43.3573 28.8524V28.8874L43.3092 29.0534L43.2568 29.1583V29.3286L43.1476 29.4422L43.1257 29.5558L43.1432 29.6694L43.0558 29.7262V29.7349L42.9816 29.8354L42.9947 29.8748L42.9029 30.0364C42.7762 30.2549 42.667 30.4908 42.5796 30.7529L42.5534 30.8272V30.9451L42.3874 31.0981L42.4398 31.2335L42.2738 31.3733L42.2039 31.4869L42.1471 31.6136L41.2995 33.0859L41.234 33.1471V33.1602L41.1073 33.3699C41.1073 33.3699 41.0505 33.4354 41.0286 33.4573V33.466L40.9063 33.667L40.8539 33.7325L40.832 33.7544V33.7718L40.7097 33.9684L40.1549 34.6981L40.1461 34.7374L39.9888 34.899C39.9189 34.9689 39.8621 35.0257 39.8359 35.0782L39.7617 35.2398L39.7136 35.2573L39.6612 35.3316C39.6087 35.3883 39.5519 35.4451 39.4951 35.5019C39.3816 35.6155 39.2811 35.7116 39.2155 35.8209L39.1937 35.8558L39.1675 35.8864C39.1063 35.9563 39.0408 36.0175 38.9752 36.0786C38.8922 36.1573 38.818 36.2228 38.7874 36.2883L38.7568 36.3495L38.4291 36.6859L38.4029 36.7034C38.285 36.7951 38.1495 36.8956 37.966 36.8956L37.9748 36.9044Z" fill="white"/>
<path d="M43.8291 17.7597C43.8335 17.8427 43.8422 17.9257 43.8466 18.0087C43.8466 18.1354 43.8859 18.249 43.9296 18.3626C43.934 18.4806 43.9427 18.5942 43.9471 18.7121C43.9471 18.8388 43.9864 18.9524 44.0301 19.066C44.0345 19.1665 44.0388 19.267 44.0432 19.3675C44.0257 19.6427 44.0825 19.9049 44.1306 20.1714C44.1306 21.1762 44.1306 22.1811 44.1306 23.1859C44.0782 23.4 44.065 23.6228 44.0476 23.8413C44.0432 23.9898 44.0345 24.1427 44.0301 24.2913C43.982 24.3874 43.9646 24.4879 43.9602 24.5971C43.9034 24.7587 43.9296 24.9291 43.9296 25.0951C43.7985 25.3311 43.7985 25.6019 43.7417 25.851C43.7024 26.0301 43.6194 26.2092 43.6369 26.4015C43.6369 26.4364 43.6282 26.467 43.6238 26.5019C43.5976 26.6024 43.5757 26.7029 43.5495 26.8078C43.5189 26.8558 43.5189 26.9039 43.5277 26.9563C43.5102 26.9913 43.4927 27.0218 43.4752 27.0568C43.3922 27.1267 43.4228 27.2184 43.4228 27.3058C43.3922 27.332 43.3704 27.3626 43.3748 27.4063C43.3005 27.4587 43.3267 27.5374 43.3223 27.6073C43.2743 27.6684 43.2306 27.7252 43.2524 27.8083C43.2131 27.8694 43.2131 27.9393 43.2218 28.0092C43.1388 28.1141 43.117 28.2408 43.0733 28.3631C42.999 28.4155 43.0209 28.4942 43.0252 28.5641C43.0078 28.599 42.9903 28.6296 42.9728 28.6646C42.8985 28.717 42.9204 28.7956 42.9248 28.8655C42.9073 28.9005 42.8898 28.9311 42.8723 28.966C42.7981 29.0184 42.8199 29.0971 42.8199 29.167C42.7893 29.1976 42.7369 29.2107 42.7413 29.2675C42.7325 29.3024 42.7282 29.333 42.7194 29.368C42.6932 29.3942 42.6626 29.4204 42.667 29.4684C42.6102 29.5034 42.6102 29.5602 42.6146 29.6214C42.5796 29.665 42.5316 29.7044 42.5359 29.7655C42.5316 29.7786 42.5228 29.7917 42.5184 29.8092C42.5184 29.818 42.5184 29.8223 42.5228 29.8311C42.3743 30.0845 42.2563 30.351 42.1602 30.6262C42.099 30.6612 42.1078 30.7223 42.1121 30.7791C42.0073 30.8534 41.968 30.9626 41.9286 31.0762C41.9112 31.085 41.9068 31.1024 41.9155 31.1199C41.8806 31.1505 41.8544 31.1811 41.8587 31.2291C41.8456 31.251 41.8369 31.2684 41.8238 31.2903C41.8019 31.3384 41.7801 31.3864 41.7583 31.4301C41.7451 31.4519 41.7364 31.4694 41.7233 31.4913C41.4655 31.9413 41.2078 32.3869 40.9456 32.8369C40.8845 32.8981 40.8146 32.9461 40.8058 33.0422C40.784 33.0772 40.7665 33.1078 40.7447 33.1427C40.6922 33.2083 40.6136 33.2519 40.6005 33.3437L40.5393 33.4442C40.4782 33.501 40.4083 33.5534 40.3995 33.6495C40.3777 33.6801 40.3602 33.715 40.3383 33.7456C40.168 33.9728 39.9976 34.1956 39.8228 34.4228C39.7704 34.449 39.7442 34.4927 39.7354 34.5495C39.6262 34.6631 39.5039 34.7636 39.4383 34.9121C39.3728 34.9384 39.3553 34.9951 39.3335 35.0519C39.1631 35.2354 38.9665 35.3927 38.8354 35.6155C38.6913 35.7816 38.4947 35.9039 38.3942 36.1092C38.3068 36.1966 38.2194 36.284 38.132 36.3757C37.9267 36.5286 37.9136 36.5243 37.8743 36.2621L37.8568 36.0131C37.7913 35.6854 37.6558 35.384 37.4549 35.1175L37.3675 35.0083C37.3456 34.8903 37.2277 34.8422 37.1709 34.7549L37.3238 34.532C37.3849 34.5058 37.4286 34.4621 37.4549 34.401C37.5816 34.3311 37.6383 34.1956 37.7257 34.0951C37.7913 34.0733 37.8087 34.0121 37.8306 33.9553C37.9835 33.8199 38.1102 33.6626 38.2282 33.4922C38.2937 33.4704 38.3112 33.4092 38.3286 33.3524H38.3417V33.335C38.3767 33.2913 38.4116 33.2432 38.451 33.1995C38.4597 33.182 38.4684 33.1689 38.4772 33.1515C38.6825 32.9461 38.8311 32.6971 38.9971 32.4612C39.6044 31.5874 40.1286 30.6655 40.5699 29.7C40.7883 29.2194 41.0243 28.7432 41.1597 28.2277C41.1684 28.1927 41.1772 28.1621 41.1816 28.1272C41.2602 27.983 41.3388 27.8388 41.365 27.6728C41.365 27.6379 41.3738 27.6073 41.3782 27.5723C41.4087 27.5068 41.435 27.4369 41.4655 27.3714C41.4699 27.3233 41.4786 27.2709 41.483 27.2228C41.5311 27.166 41.5704 27.1005 41.5616 27.0218C41.5922 26.9738 41.5922 26.9214 41.5791 26.8689C41.9286 25.9471 42.0597 24.9772 42.1733 24.0073C42.1733 23.9592 42.1733 23.9068 42.1777 23.8587C42.2214 23.5922 42.3087 23.3301 42.265 23.0505C42.3 22.7141 42.2956 22.382 42.2782 22.0456C42.3481 21.8141 42.3481 21.5825 42.2782 21.3466C42.2956 21.0102 42.2956 20.6782 42.265 20.3417C42.2738 20.1015 42.2563 19.8655 42.1777 19.6384C42.1908 19.5204 42.2039 19.4024 42.1602 19.2888C42.1733 19.1316 42.1296 18.983 42.0772 18.8345C42.0772 18.7689 42.0684 18.699 42.0641 18.6335C42.0728 18.5068 42.0728 18.3845 41.9811 18.2796C41.9767 18.2316 41.9723 18.1791 41.9636 18.1311C41.9592 17.9913 41.9199 17.8602 41.8762 17.7291C41.8762 17.6767 41.8718 17.6286 41.8675 17.5762C41.7932 17.0913 41.6403 16.6282 41.4786 16.1694C41.4743 16.1214 41.4655 16.0689 41.4612 16.0209C41.4306 15.9553 41.4044 15.8854 41.3738 15.8199C41.3694 15.785 41.365 15.7544 41.3607 15.7194C41.3694 15.6495 41.317 15.6146 41.2777 15.5665L41.2558 15.466C41.2689 15.383 41.2252 15.3218 41.1772 15.265C41.1684 15.2301 41.1641 15.1995 41.1553 15.1646C41.1684 15.0816 41.1248 15.0204 41.0767 14.9636C41.068 14.9286 41.0636 14.8981 41.0549 14.8631C40.9107 14.5748 40.8539 14.2471 40.6485 13.985H40.6442C40.618 13.7447 40.5044 13.5481 40.3733 13.3558C40.3646 13.3209 40.3602 13.2903 40.3515 13.2553C40.3252 13.1592 40.2772 13.0806 40.1985 13.0238C40.1898 13.0019 40.1767 12.9757 40.168 12.9539C40.0194 12.5476 39.7835 12.185 39.5388 11.8354C39.5257 11.8267 39.5083 11.8136 39.4951 11.8049L39.4864 11.8136L39.4995 11.8049C39.3466 11.4073 39.0976 11.0665 38.8267 10.7432C38.7306 10.5772 38.6607 10.3893 38.4816 10.2888C38.451 10.1053 38.2981 9.99612 38.1976 9.86068C37.5859 9.0699 36.8738 8.36651 36.1529 7.67184C36.0218 7.54515 35.9214 7.36165 35.716 7.31796C35.668 7.23058 35.6068 7.16068 35.515 7.12136C35.3927 7.01214 35.2748 6.88981 35.1437 6.79369C34.8684 6.59709 34.6325 6.34369 34.3136 6.21262C34.0864 5.95922 33.7718 5.83252 33.5053 5.63155C33.2519 5.49612 33.0379 5.29078 32.7583 5.20777C32.1947 4.81893 31.5743 4.53932 30.9451 4.26408C30.9102 4.20291 30.849 4.21165 30.7922 4.21602C30.766 4.18981 30.7398 4.15922 30.6917 4.16359C30.6568 4.1068 30.6 4.1068 30.5388 4.11117C30.2549 3.95388 29.9534 3.83592 29.6345 3.76165C29.582 3.68738 29.5078 3.70485 29.4335 3.70922C29.3854 3.67427 29.3549 3.61311 29.2806 3.62185C29.2456 3.62185 29.215 3.61748 29.1801 3.61311C29.1451 3.59563 29.1146 3.57816 29.0796 3.56068C29.0097 3.47767 28.918 3.50825 28.8306 3.50825C28.8044 3.47767 28.7738 3.45583 28.7301 3.46019C28.6602 3.37282 28.5641 3.41214 28.4767 3.41214C27.983 3.17621 27.4456 3.12379 26.9214 3.01893C26.8558 3.01893 26.7859 3.01019 26.7204 3.00583C26.6942 2.97524 26.6636 2.9534 26.6199 2.95777C26.4976 2.85291 26.3534 2.92282 26.218 2.90534C26.1044 2.86165 25.9908 2.82233 25.8641 2.82233C25.7155 2.81796 25.5626 2.80922 25.4141 2.80485C25.117 2.73495 24.8155 2.69126 24.5097 2.71748C24.3743 2.71748 24.2432 2.70874 24.1078 2.70437C23.9417 2.6432 23.7757 2.6432 23.6097 2.70437C23.5748 2.70437 23.5398 2.70437 23.5049 2.70437C23.4743 2.66505 23.4393 2.66505 23.4087 2.70437H23.3039C23.2733 2.66505 23.2383 2.66505 23.2078 2.70437C23.1728 2.70437 23.1379 2.70437 23.1029 2.70437C23.0374 2.65194 22.9718 2.64757 22.9063 2.70437C22.8714 2.70437 22.8364 2.70437 22.8015 2.70437C22.7359 2.65194 22.6704 2.64757 22.6049 2.70437C22.4563 2.70437 22.3034 2.70874 22.1549 2.71311C21.7049 2.68689 21.268 2.78738 20.8223 2.81359C20.6738 2.82233 20.5209 2.79175 20.3985 2.90971C20.2631 2.91845 20.1189 2.86602 19.9966 2.96214C19.9529 2.95777 19.9223 2.97961 19.8961 3.01019C19.7782 3.00146 19.6602 2.99709 19.5466 3.02767C19.4461 3.01019 19.3675 3.05388 19.2932 3.11068L19.1927 3.12379C18.6641 3.19806 18.1573 3.3466 17.6549 3.52573C17.633 3.52573 17.6112 3.53447 17.5893 3.53884C17.5063 3.52573 17.4451 3.56942 17.384 3.61748C17.3272 3.61748 17.2704 3.60874 17.2311 3.6699C17.1961 3.68738 17.1655 3.70486 17.1306 3.72233C17.0563 3.71796 16.982 3.70049 16.9296 3.77039C16.8947 3.78786 16.8641 3.80534 16.8291 3.82282C16.7549 3.81845 16.6806 3.80097 16.6282 3.87087C16.5845 3.86214 16.5583 3.89272 16.5277 3.9233C16.4709 3.91893 16.4097 3.91019 16.3748 3.97136C16.1738 4.05437 15.9728 4.13738 15.7718 4.22039C15.715 4.22039 15.6583 4.21602 15.6189 4.27282C15.5709 4.29466 15.5272 4.31651 15.4791 4.33835C15.3262 4.40825 15.1733 4.47816 15.0204 4.54369C14.9636 4.54369 14.9505 4.59175 14.9199 4.62233C14.885 4.63107 14.8544 4.63544 14.8194 4.64418C14.7714 4.67476 14.7233 4.70534 14.6752 4.74029C14.6053 4.74029 14.566 4.79709 14.5136 4.82767C14.483 4.83204 14.4437 4.82767 14.4175 4.84515C13.7796 5.18155 13.1592 5.54854 12.5694 5.96359C12.1981 6.22573 11.8136 6.47039 11.4772 6.78058C11.368 6.87233 11.2587 6.95971 11.1495 7.05146C10.9966 7.13447 10.8874 7.26553 10.7694 7.3835L10.6995 7.44466C10.4592 7.65 10.1971 7.82913 10.0049 8.08689C9.81262 8.24854 9.62039 8.41019 9.49369 8.63301C9.37573 8.68544 9.30145 8.79029 9.21845 8.88204C8.72912 9.42816 8.25291 9.98301 7.83786 10.5859C7.5801 10.9617 7.29611 11.3199 7.10388 11.735C7.04709 11.7524 7.03398 11.7961 7.02961 11.8485C6.64514 12.4034 6.34369 13.0019 6.05534 13.6136C6.05097 13.6485 6.04223 13.6791 6.03786 13.7141C5.90679 13.8801 5.83689 14.0767 5.75388 14.2689C5.74514 14.3039 5.74077 14.3345 5.73204 14.3694C5.68398 14.4262 5.64466 14.4917 5.6534 14.5704C5.64466 14.6053 5.64029 14.6359 5.63155 14.6709C5.5398 14.7495 5.51796 14.8544 5.50922 14.9636C5.40437 15.0029 5.42184 15.0903 5.42621 15.1733C5.39563 15.1995 5.37378 15.2301 5.37815 15.2738C5.30388 15.3262 5.32136 15.4005 5.32573 15.4748C5.29514 15.501 5.2733 15.5316 5.27767 15.5752C5.2034 15.6277 5.22961 15.7063 5.22524 15.7762C5.19466 15.8024 5.16844 15.833 5.17718 15.8767C5.10291 15.9291 5.12039 16.0034 5.12476 16.0777C5.0898 16.1214 5.04175 16.1607 5.05048 16.2262C5.05048 16.2524 5.04175 16.2786 5.03738 16.3092C4.88446 16.6718 4.83641 17.0607 4.73592 17.4408C4.73592 17.4888 4.72718 17.5413 4.72281 17.5893C4.67476 17.6505 4.63107 17.7117 4.65291 17.7947C4.60485 17.8908 4.61796 17.9913 4.62233 18.0917C4.53058 18.1922 4.53495 18.3189 4.53495 18.4456C4.53058 18.5286 4.52621 18.6117 4.52184 18.6947C4.49563 18.7951 4.46942 18.8956 4.44757 19.0005C4.40388 19.0966 4.42573 19.2015 4.42136 19.3019C4.36893 19.5335 4.30777 19.765 4.33398 20.0053C4.32961 20.1408 4.32524 20.2718 4.32087 20.4073C4.28155 20.4379 4.28155 20.4728 4.32087 20.5034C4.32087 20.5383 4.32087 20.5733 4.32087 20.6083C4.15922 21.3422 4.20291 22.0806 4.32087 22.8146C4.32087 22.8495 4.32087 22.8845 4.32087 22.9194C4.28155 22.95 4.28155 22.985 4.32087 23.0155C4.32524 23.151 4.32961 23.282 4.33398 23.4175C4.32087 23.6578 4.32961 23.8937 4.42136 24.1209C4.42136 24.2214 4.40388 24.3218 4.44757 24.4223C4.47378 24.5228 4.5 24.6233 4.52184 24.7238L4.53932 25.0733C4.52184 25.1738 4.56553 25.2524 4.62233 25.3267L4.63107 25.4796C4.60485 25.6107 4.64417 25.7243 4.72281 25.8291L4.73592 25.9777C4.83204 26.3272 4.86699 26.6985 5.02864 27.035C5.02864 27.1049 5.00679 27.1835 5.08107 27.2359C5.0767 27.2796 5.09417 27.3102 5.12912 27.3364C5.12912 27.4063 5.09854 27.485 5.17718 27.5374C5.19466 27.5723 5.21213 27.6029 5.22961 27.6379C5.22961 27.7121 5.20777 27.7864 5.28204 27.8388C5.27767 27.8825 5.29951 27.9131 5.3301 27.9393C5.3301 28.0136 5.30825 28.0879 5.38252 28.1403C5.37815 28.184 5.39563 28.2146 5.43058 28.2408C5.43932 28.2757 5.44369 28.3063 5.45243 28.3413C5.45243 28.4374 5.50048 28.5117 5.54854 28.5859C5.56165 28.6078 5.57039 28.6252 5.58349 28.6471C5.57912 28.6908 5.60097 28.7214 5.63155 28.7476C5.63155 28.8218 5.60971 28.8961 5.68398 28.9485C5.70145 28.9835 5.71893 29.0141 5.73204 29.049C5.73204 29.084 5.72767 29.1189 5.7233 29.1539C5.43495 29.2893 5.44806 29.285 5.31262 28.9791C5.22087 28.7738 5.11602 28.5641 4.91068 28.433C4.89757 28.3544 4.84514 28.3325 4.77961 28.3325C4.6966 28.2233 4.58738 28.149 4.46068 28.0966C4.40825 28.0529 4.40825 27.9524 4.30776 27.9699L4.20728 27.9481C4.04563 27.8388 3.86213 27.7777 3.67427 27.7733C3.42524 27.7689 3.25485 27.699 3.19369 27.4413L3.17184 27.2927C3.18058 27.2228 3.13252 27.1835 3.0932 27.1398C3.0932 27.0874 3.08446 27.0393 3.08446 26.9869C3.11942 26.8777 3.05825 26.8078 2.99272 26.7379C3.00145 26.668 3.00582 26.6024 2.97087 26.5369C2.97961 26.4539 2.94466 26.3927 2.8966 26.3359C2.8966 26.2354 2.91408 26.135 2.86602 26.0388C2.88786 25.9558 2.84417 25.8947 2.79611 25.8335C2.79611 25.733 2.81796 25.6282 2.7699 25.532C2.78738 25.4228 2.7699 25.318 2.69563 25.2306C2.7 25.1607 2.70437 25.0951 2.66505 25.034C2.69563 24.8898 2.63883 24.7587 2.59514 24.6277C2.59077 24.4922 2.61699 24.3568 2.56456 24.2301C2.58204 24.0553 2.54272 23.8893 2.49466 23.7233C2.49029 23.6228 2.48592 23.5223 2.48155 23.4218C2.49466 23.0505 2.45097 22.6835 2.39417 22.3165C2.39417 22.2816 2.39417 22.2466 2.39417 22.2117C2.42476 21.4733 2.45097 20.735 2.48155 20.001C2.48592 19.9005 2.49029 19.8 2.49466 19.6995C2.52087 19.516 2.55145 19.3282 2.57767 19.1447C2.58204 19.0267 2.59077 18.9131 2.59514 18.7951C2.65194 18.651 2.68252 18.4981 2.68252 18.3408C2.68252 18.2927 2.69126 18.2403 2.69563 18.1922C2.79611 18.0743 2.78301 17.9301 2.78301 17.7903C2.78301 17.7553 2.79175 17.7248 2.79611 17.6898C2.82233 17.5893 2.84854 17.4888 2.87039 17.384C2.91408 17.2879 2.89223 17.183 2.89223 17.0869C2.93155 17.0432 2.97961 17.0039 2.97087 16.934C2.97961 16.851 2.98398 16.768 2.99272 16.685C3.03204 16.6413 3.0801 16.6019 3.07136 16.532C3.07573 16.484 3.08446 16.4316 3.08883 16.3835C3.14563 16.3267 3.17184 16.2568 3.18058 16.1825C3.26796 15.6233 3.51699 15.1121 3.6699 14.5748C3.67864 14.5267 3.68301 14.4743 3.69175 14.4262C3.72233 14.3956 3.77476 14.3825 3.77039 14.3257C3.80534 14.282 3.80534 14.2296 3.7966 14.1772C3.83592 14.1335 3.88398 14.0942 3.87524 14.0243C3.87961 13.9893 3.88398 13.9587 3.89272 13.9238C3.92767 13.8757 3.98883 13.8451 3.97573 13.7709L3.99757 13.6704C4.10242 13.5743 4.13738 13.4432 4.18107 13.3165C4.18543 13.2816 4.19417 13.251 4.19854 13.216C4.22912 13.1854 4.28155 13.1723 4.27718 13.1155C4.3034 13.0544 4.32524 12.9932 4.35582 12.9364C4.54369 12.5432 4.73155 12.1544 4.91942 11.7655C5.03738 11.6782 5.06796 11.5296 5.14223 11.416C5.30825 11.1539 5.45243 10.8786 5.60971 10.6078C5.71456 10.5117 5.77573 10.3893 5.82378 10.2583C6.14709 9.81699 6.47039 9.37136 6.79806 8.9301L6.80679 8.92136C6.89417 8.81214 6.98155 8.70291 7.06893 8.59806C7.15631 8.48447 7.23932 8.37524 7.3267 8.26165C7.62815 7.98641 7.87281 7.65437 8.14369 7.34854C8.32281 7.23932 8.43204 7.06019 8.58495 6.92476C8.68544 6.82864 8.78155 6.73252 8.88204 6.64078C9.17039 6.3699 9.45437 6.1034 9.74272 5.83689C9.87815 5.76262 9.98738 5.6534 10.0966 5.53981C10.1316 5.52233 10.1796 5.51796 10.2058 5.49175C10.9398 4.86262 11.735 4.32524 12.5607 3.83155C12.7791 3.70049 12.9932 3.56505 13.2073 3.42961C13.2641 3.42961 13.3209 3.42524 13.3558 3.36845C13.5131 3.29418 13.6704 3.22427 13.8058 3.11505C13.8408 3.10631 13.8714 3.10194 13.9063 3.0932C14.068 2.99272 14.2602 2.94466 14.4087 2.81359C14.4437 2.80922 14.4743 2.80049 14.5092 2.79612C14.7058 2.72621 14.8981 2.64757 15.0641 2.51214C15.099 2.5034 15.1296 2.49903 15.1646 2.49029C15.2388 2.50777 15.2694 2.44223 15.3175 2.40728C15.3524 2.40728 15.383 2.40291 15.418 2.39854C15.4879 2.40728 15.5228 2.35049 15.5709 2.31117C15.6277 2.3199 15.6845 2.31553 15.7194 2.25874C15.7544 2.24126 15.7849 2.22379 15.8199 2.20631C15.8767 2.21068 15.9379 2.21942 15.9728 2.15825C16.0165 2.16262 16.0471 2.14515 16.0733 2.11019C16.1083 2.10146 16.1388 2.09709 16.1738 2.08835C16.4665 1.9966 16.7636 1.91796 17.0476 1.80437C17.2573 1.72136 17.4976 1.74757 17.6811 1.6034C17.751 1.6034 17.8296 1.62524 17.882 1.55097C17.9257 1.55534 17.9563 1.5335 17.9825 1.50291C18.0524 1.51165 18.118 1.51602 18.1835 1.48107C18.2665 1.48981 18.3277 1.45049 18.3845 1.4068C18.4675 1.40243 18.5505 1.39369 18.6335 1.38932C18.734 1.4068 18.8126 1.36311 18.8869 1.30631C18.9874 1.29757 19.101 1.34126 19.1883 1.25388C19.2583 1.24515 19.3325 1.25825 19.3893 1.20583C19.4374 1.20146 19.4898 1.19272 19.5379 1.18835C19.6646 1.18835 19.7782 1.14903 19.8917 1.10534C20.0097 1.10097 20.1233 1.09223 20.2413 1.08786C20.368 1.08786 20.4816 1.04854 20.5951 1.00485C20.6607 1.00485 20.7306 0.996117 20.7961 0.991748C21.0364 1.01359 21.268 0.956797 21.4995 0.904369C22.7053 0.904369 23.9112 0.904369 25.117 0.904369C25.2655 0.948059 25.4053 1.0267 25.5714 0.987379C25.6893 0.991748 25.8029 1.00049 25.9209 1.00485C26.065 1.06165 26.218 1.0966 26.3752 1.08786C26.4932 1.09223 26.6068 1.10097 26.7248 1.10534C27.1922 1.24515 27.6728 1.32379 28.1534 1.4199C28.5553 1.50291 28.9485 1.63835 29.3461 1.75194C29.4947 1.79563 29.6432 1.83932 29.7917 1.88738C29.8267 1.89175 29.8573 1.90049 29.8922 1.90485C29.9403 1.93981 29.9709 2.00097 30.0451 1.98786C30.0932 2.01845 30.1413 2.01408 30.1937 2.00534C30.2417 2.04029 30.2723 2.10146 30.3466 2.08835C30.3947 2.11893 30.4427 2.11456 30.4951 2.10583C30.5432 2.14078 30.5738 2.20194 30.6481 2.18884C30.683 2.19757 30.7136 2.20194 30.7485 2.21068C30.7922 2.25 30.8316 2.30243 30.9015 2.29369C30.9364 2.29806 30.967 2.30243 31.0019 2.31117C31.05 2.34612 31.0806 2.40728 31.1549 2.39418C31.1898 2.40291 31.2204 2.40728 31.2553 2.41602C31.299 2.45534 31.3383 2.50777 31.4082 2.49903C31.4432 2.5034 31.4738 2.51214 31.5087 2.51651C31.7578 2.68689 32.0286 2.80485 32.3126 2.90097C32.6097 3.04951 32.8937 3.23301 33.2126 3.3335C33.5578 3.6 33.9553 3.77476 34.3223 4.00631C34.3704 4.05 34.4053 4.1068 34.4796 4.11117C34.567 4.18544 34.65 4.26408 34.7723 4.27718C34.7898 4.32087 34.8291 4.32961 34.8684 4.33398C35.1481 4.57864 35.4539 4.79709 35.7728 4.98932C35.8689 5.0767 35.9432 5.19029 36.0743 5.22961C36.1049 5.25146 36.1398 5.26893 36.1704 5.29078C36.2883 5.40437 36.3888 5.53981 36.5461 5.60534C36.7558 5.81942 36.983 6.01165 37.2277 6.19078L37.2845 6.24757C37.4592 6.41796 37.6121 6.61456 37.8262 6.74126C37.9791 6.89418 38.1364 7.05146 38.2893 7.20437C38.416 7.42282 38.6126 7.57136 38.783 7.75049H38.7874C38.8136 7.8335 38.8616 7.89466 38.9316 7.93398C39.0015 8.0432 39.0888 8.13058 39.1893 8.20922C39.2811 8.37087 39.4034 8.51068 39.5301 8.64612C39.5825 8.70291 39.6349 8.75534 39.6917 8.81214C39.8665 9.11796 40.0981 9.3801 40.3078 9.65534C40.4432 9.86505 40.5481 10.0966 40.7359 10.267C40.7578 10.3194 40.7709 10.3806 40.8058 10.4286C41.2209 10.9922 41.5223 11.6214 41.8544 12.2286C42.0422 12.5738 42.2126 12.932 42.3874 13.2859C42.5053 13.5874 42.6277 13.8888 42.7456 14.1859C42.8024 14.317 42.8024 14.4743 42.9029 14.5879C42.9029 14.6447 42.8942 14.7015 42.9553 14.7408C42.9728 14.7757 42.9903 14.8063 43.0078 14.8413C43.0078 14.8762 43.0121 14.9068 43.0165 14.9417C43.0602 15.1034 43.0951 15.265 43.2044 15.3961C43.1956 15.466 43.2 15.5316 43.2349 15.5927C43.2131 15.6757 43.2612 15.7369 43.3049 15.7937C43.3092 15.8811 43.283 15.9728 43.3573 16.0471C43.3485 16.0951 43.3791 16.117 43.4053 16.1476C43.401 16.2218 43.3835 16.2961 43.4534 16.3485C43.4709 16.3835 43.4883 16.4141 43.5058 16.449C43.5058 16.5015 43.5102 16.5495 43.5146 16.6019C43.6063 17.0039 43.6413 17.4233 43.8029 17.8078L43.8291 17.7597Z" fill="white"/>
<path d="M17.2573 3.65243C17.2485 3.71796 17.2311 3.76602 17.1568 3.70485C17.1918 3.68738 17.2223 3.6699 17.2573 3.65243Z" fill="white"/>
<path d="M34.1869 19.468C34.1913 19.516 34.1956 19.5684 34.2044 19.6165C34.1694 19.7257 34.2786 19.7913 34.2874 19.8961C34.3049 20.1189 34.4403 20.2631 34.6587 20.3155C34.899 20.3723 35.1437 20.4117 35.3884 20.4553C35.4364 20.4553 35.4888 20.4597 35.5369 20.4641C35.668 20.5121 35.799 20.5471 35.9388 20.5515C36.0044 20.5515 36.0743 20.5602 36.1398 20.5646C36.2709 20.6126 36.4019 20.6476 36.5418 20.6519C36.6248 20.6563 36.7078 20.6607 36.7908 20.6694C36.983 20.7743 37.149 20.901 37.2015 21.1282C37.2015 21.2286 37.2015 21.3335 37.2015 21.434C37.1272 22.0194 37.1272 22.6005 37.2015 23.1859C37.2015 23.2383 37.2015 23.2908 37.2015 23.3432C37.1665 23.4262 37.1053 23.4961 37.1141 23.5922C37.0879 23.6272 37.0617 23.6665 37.0398 23.7015C36.9306 23.7495 36.8214 23.7976 36.6947 23.8194C36.3888 23.8718 36.0874 23.9417 35.7816 24.0073C35.7335 24.0073 35.6811 24.016 35.633 24.016C35.5107 24.016 35.3927 24.0553 35.2791 24.099C35.1961 24.1034 35.1131 24.1121 35.0301 24.1165C34.9034 24.1078 34.7811 24.1121 34.6762 24.1995C34.5801 24.1951 34.4796 24.1864 34.4228 24.2956C34.366 24.3306 34.3223 24.383 34.3005 24.4485C34.2524 24.5971 34.2743 24.7456 34.2743 24.8985C34.2175 24.9728 34.1738 25.0515 34.1782 25.1519C33.8942 25.5714 33.8898 25.7461 34.1651 26.0563C34.4621 26.4189 34.8816 26.6417 35.2267 26.9519C35.4058 27.1092 35.5631 27.2927 35.7772 27.415C36.0437 27.7252 36.0481 27.7689 35.8602 28.1403C35.8384 28.184 35.8165 28.2277 35.7947 28.2714C35.7641 28.3238 35.7029 28.3587 35.7029 28.433C35.4277 28.9005 35.1524 29.3636 34.8859 29.8311C34.6762 30.1981 34.5495 30.2592 34.1607 30.115C33.5665 29.8922 32.9636 29.6738 32.3651 29.4641C32.0723 29.3636 31.8495 29.4029 31.6442 29.6257C31.382 29.9053 31.1155 30.1806 30.8447 30.4558C30.7835 30.5214 30.7442 30.5782 30.7835 30.6786C31.0413 31.3471 31.2947 32.0112 31.5481 32.6796C31.6879 33.051 31.5874 33.3262 31.2728 33.4485C31.1723 33.4879 31.1068 33.501 31.0325 33.3786C30.9189 33.1951 30.766 33.0379 30.6175 32.8806C29.9228 32.1597 29.0403 31.8015 28.0922 31.5568C28.0573 31.5568 28.0267 31.5481 27.9918 31.5437C27.9131 31.5087 27.8345 31.4563 27.7384 31.4607C27.6903 31.4301 27.6422 31.4301 27.5898 31.4432C27.5068 31.4083 27.4325 31.3558 27.3364 31.3602C27.2884 31.3296 27.2403 31.3296 27.1879 31.3427C27.0918 31.3034 27 31.2335 26.882 31.2553C26.8296 31.2291 26.7772 31.2291 26.7248 31.2466C26.6418 31.216 26.5631 31.1898 26.4801 31.1592C26.4146 31.1286 26.349 31.133 26.2791 31.1417C26.1481 31.0937 26.017 31.0587 25.8772 31.0544C25.8117 31.0544 25.7418 31.0456 25.6762 31.0413C25.2918 30.8971 24.8767 30.9058 24.4791 30.849C24.1602 30.8053 23.8456 30.7049 23.518 30.7442C23.2995 30.7223 23.0811 30.718 22.8626 30.7354C22.8233 30.7223 22.784 30.6961 22.7447 30.6961C22.05 30.6568 21.3597 30.6131 20.7 30.351C20.6651 30.3422 20.6345 30.3379 20.5995 30.3291C20.3505 30.1587 20.0621 30.0757 19.7956 29.949C19.7607 29.9403 19.7301 29.9359 19.6951 29.9272C19.4592 29.7655 19.2015 29.6519 18.9393 29.5427C18.9044 29.5384 18.8738 29.534 18.8388 29.5252C18.7427 29.4248 18.6117 29.3898 18.485 29.3417C18.45 29.333 18.4194 29.3286 18.3845 29.3199C18.201 29.1495 17.9476 29.132 17.7291 29.0316C17.6942 29.0316 17.6636 29.0228 17.6286 29.0228C17.5893 28.9922 17.55 28.9529 17.5063 28.9354C17.0651 28.7956 16.6325 28.6209 16.1694 28.5379C16.1214 28.5073 16.0733 28.5073 16.0209 28.5204C15.9248 28.4811 15.833 28.4112 15.7194 28.4243C15.6845 28.4243 15.6539 28.4243 15.6189 28.4199C15.5228 28.3806 15.4311 28.3107 15.3175 28.3325C15.2519 28.3325 15.1864 28.3238 15.1165 28.3194C14.9549 28.2626 14.7888 28.2277 14.6141 28.2233C14.5136 28.2233 14.4131 28.2189 14.3126 28.2146C14.1335 28.149 13.95 28.1141 13.7578 28.1316C13.5612 28.101 13.3602 28.0922 13.1592 28.1184C12.6393 28.0966 12.1194 28.0922 11.5951 28.1228L11.4947 28.1097C11.4947 28.1097 11.4553 28.0704 11.4379 28.0529C11.4291 28.018 11.4248 27.9874 11.416 27.9524C11.416 27.8956 11.368 27.8825 11.3374 27.8519C11.3374 27.7995 11.3374 27.7471 11.3374 27.6947C11.3767 27.651 11.4335 27.616 11.4335 27.5461C11.4859 27.4937 11.5427 27.4369 11.5951 27.3845C11.7393 27.3189 11.8442 27.2053 11.949 27.0917C12.0626 27.0568 12.1282 26.965 12.1981 26.882C12.3248 26.8383 12.4034 26.7291 12.4908 26.6417C12.5257 26.6155 12.5607 26.5893 12.5956 26.5675C12.6568 26.5413 12.7049 26.5019 12.7354 26.4451C12.7573 26.4233 12.7791 26.4058 12.801 26.384C12.9277 26.3403 13.0063 26.2311 13.0937 26.1393C13.1112 26.1218 13.133 26.1 13.1505 26.0825C13.3121 25.9995 13.4519 25.9078 13.3515 25.6937C13.3515 25.6587 13.3427 25.6282 13.3384 25.5932C13.3777 25.4709 13.2816 25.3966 13.2379 25.3005C13.2379 25.2655 13.2379 25.2306 13.2379 25.1913C13.1723 24.9204 13.1199 24.6451 13.0413 24.3786C13.0107 24.2782 12.9189 24.1995 12.801 24.1777C12.4165 24.1165 12.032 24.0597 11.6476 23.9985C11.6126 23.9985 11.582 23.9898 11.5471 23.9854C11.4335 23.9417 11.3199 23.9024 11.1932 23.9024C11.1102 23.8981 11.0272 23.8893 10.9442 23.885C10.8699 23.8282 10.7913 23.7845 10.6908 23.8019L10.4418 23.7845C10.2015 23.5922 10.1927 23.3519 10.2146 23.0549C10.2626 22.4694 10.2277 21.8752 10.2277 21.2854C10.2277 21.1937 10.2189 21.1019 10.2146 21.0146C10.2233 20.9709 10.232 20.9228 10.2408 20.8791C10.5291 20.6083 10.9223 20.665 11.2675 20.5733C11.4248 20.534 11.5908 20.5209 11.7481 20.4597C11.8311 20.4553 11.9141 20.4466 11.9971 20.4422C12.1238 20.4422 12.2374 20.4029 12.351 20.3592C12.399 20.3592 12.4515 20.3505 12.4995 20.3461C12.6262 20.3461 12.7485 20.3461 12.8534 20.2544C12.9757 20.215 13.0675 20.1583 13.0456 20.0053C13.1068 19.8961 13.1505 19.7825 13.1286 19.6515C13.1636 19.6034 13.1592 19.551 13.1461 19.4985C13.5131 18.6728 13.5044 18.6379 12.7879 18.0437C12.434 17.751 12.0845 17.4583 11.735 17.1655C11.2893 16.7942 11.2893 16.7854 11.534 16.283C11.5646 16.2306 11.6257 16.2 11.6257 16.1301C11.9447 15.6888 12.185 15.1951 12.4471 14.7189C12.5869 14.4655 12.7311 14.2558 13.0631 14.3083C13.0981 14.3083 13.1286 14.317 13.1636 14.3214C13.8408 14.649 14.5617 14.8762 15.2738 15.1121C15.5403 15.1995 15.667 14.9374 15.7893 14.7364C15.8898 14.6883 15.951 14.5966 16.0209 14.5136C16.2175 14.3738 16.4141 14.2471 16.5189 13.9893C16.5888 13.8146 16.5189 13.6922 16.4752 13.5655C16.2743 12.9801 16.0558 12.3947 15.8417 11.8136C15.8286 11.7743 15.7937 11.7481 15.7675 11.7131C15.7631 11.665 15.7544 11.6126 15.75 11.5646C15.75 11.4947 15.75 11.4248 15.75 11.3592C15.7544 11.3243 15.7587 11.2937 15.7675 11.2587C16.2612 10.9704 16.7549 10.682 17.2442 10.3937C17.3578 10.3282 17.467 10.2495 17.5762 10.1796C17.633 10.1796 17.6592 10.1447 17.6811 10.101C17.7073 10.0966 17.7335 10.101 17.751 10.0879C18.1835 9.81262 18.2534 9.85631 18.6335 10.2976C19.0704 10.8044 19.4985 11.3243 19.9267 11.8354C19.9573 11.9141 20.0228 11.9141 20.0884 11.9097C20.1233 11.949 20.1539 11.949 20.1888 11.9097C20.2587 11.9141 20.3243 11.9228 20.3854 11.8835C20.4772 11.8922 20.5515 11.8398 20.6301 11.8005C20.6694 11.7961 20.7044 11.7874 20.7437 11.783C20.8092 11.783 20.8485 11.7437 20.8879 11.7087L21.1369 11.6913C21.2374 11.7087 21.316 11.665 21.3903 11.6083C21.4427 11.617 21.4951 11.617 21.5388 11.582C21.7267 11.499 21.7529 11.333 21.7704 11.1583C21.801 11.0447 21.7966 10.9267 21.7879 10.8087C21.8184 10.7825 21.8403 10.7519 21.8359 10.7083C21.9364 10.5859 21.8709 10.4417 21.8884 10.3063C22.0413 9.98301 22.0151 9.62913 22.0806 9.28835C22.1505 8.91262 22.3384 8.72476 22.7141 8.75971C23.3126 8.81214 23.9155 8.81214 24.5141 8.7466C24.8068 8.71602 25.0427 8.75534 25.2175 9C25.2175 9.10049 25.2 9.20534 25.2481 9.30146C25.2262 9.38447 25.2699 9.44563 25.318 9.50243C25.3136 9.60291 25.3005 9.70777 25.3485 9.80388C25.3267 9.88689 25.3704 9.94806 25.4185 10.0049C25.4185 10.0704 25.4272 10.1403 25.4316 10.2058C25.4927 10.599 25.5539 10.9879 25.6151 11.3811C25.6282 11.4728 25.6893 11.5558 25.7592 11.5689C26.1786 11.6519 26.5675 11.8573 26.9956 11.9053C27.1485 11.9228 27.2927 11.8922 27.4151 11.7874C27.5854 11.7306 27.6685 11.582 27.7689 11.451C27.9524 11.2282 28.1403 11.0141 28.2714 10.7563C28.2932 10.7301 28.3107 10.6995 28.3325 10.6733C28.5597 10.5597 28.6733 10.3456 28.8131 10.1534C28.8655 10.101 28.9223 10.0485 28.9748 9.99612C29.2019 9.91311 29.3985 9.96553 29.6039 10.0966C29.9884 10.3413 30.3903 10.551 30.7879 10.7782C30.8228 10.7869 30.8534 10.7913 30.8884 10.8C30.9757 10.918 31.1112 10.9616 31.2379 11.0228C31.5655 11.1845 31.6485 11.3505 31.5699 11.665C31.5655 11.7 31.5568 11.7306 31.5524 11.7655C31.5175 11.8136 31.4563 11.8442 31.4694 11.9184C31.4388 11.9665 31.4432 12.0146 31.4519 12.067C31.417 12.115 31.3558 12.1456 31.3689 12.2199C31.3602 12.2549 31.3558 12.2854 31.3471 12.3204C31.299 12.3772 31.2597 12.4427 31.2684 12.5214C31.2597 12.5563 31.2553 12.5869 31.2466 12.6218C31.2073 12.6655 31.1549 12.7049 31.1636 12.7748C31.1592 12.8097 31.1549 12.8403 31.1505 12.8752C31.0631 13.015 31.0194 13.1723 30.967 13.3252C30.9583 13.3602 30.9539 13.3908 30.9451 13.4257C30.9058 13.4694 30.8534 13.5087 30.8621 13.5786C30.8578 13.6136 30.8534 13.6442 30.849 13.6791C30.6961 13.9718 30.7354 14.0767 31.0806 14.2908C31.1286 14.3738 31.1985 14.4393 31.2772 14.4917C31.3121 14.5267 31.3427 14.5617 31.3777 14.5922C31.4126 14.6272 31.4432 14.6578 31.4782 14.6927C31.5131 14.7364 31.5306 14.7976 31.5917 14.815C31.7447 14.9636 31.8495 15.2126 32.1379 15.1034C32.2121 15.1165 32.2427 15.0553 32.2908 15.0204C32.3257 15.016 32.3563 15.0117 32.3913 15.0029C32.4568 14.9723 32.5267 14.9461 32.5922 14.9155C32.6272 14.9112 32.6578 14.9068 32.6927 14.9024C32.8413 14.8369 33.0117 14.8282 33.1471 14.7189C33.182 14.7102 33.2126 14.7058 33.2476 14.6971C33.3218 14.7146 33.3524 14.649 33.4005 14.6141C33.4354 14.6141 33.466 14.6097 33.501 14.6053C33.5665 14.5748 33.6364 14.5442 33.7019 14.5136C33.7369 14.5092 33.7675 14.5049 33.8024 14.5005C33.8898 14.4743 33.9772 14.4481 34.0602 14.4175C34.532 14.2296 34.5801 14.2427 34.8728 14.6272C34.9471 14.7626 35.017 14.8937 35.0913 15.0291C35.1743 15.2039 35.2529 15.383 35.3752 15.5316C35.3752 15.6233 35.467 15.6583 35.4932 15.7325C35.5282 15.8505 35.5937 15.951 35.6767 16.034C35.6767 16.1257 35.7684 16.1607 35.7947 16.235C35.8296 16.3529 35.8951 16.449 35.9782 16.5364C35.9782 16.6238 35.9782 16.7068 35.9825 16.7942C35.8558 16.9864 35.6854 17.1306 35.5151 17.2748C35.3097 17.4451 35.1087 17.6155 34.9078 17.7903C34.8553 17.8165 34.8029 17.8427 34.7811 17.9039C34.7592 17.9257 34.7374 17.9432 34.7155 17.965C34.5757 18.035 34.4665 18.1354 34.3704 18.2578L34.366 18.2621C34.2874 18.2883 34.2262 18.3364 34.1825 18.4063C34.1607 18.4282 34.1345 18.45 34.1126 18.4675C34.0165 18.5199 33.9204 18.5898 33.9597 18.7121C34.034 18.9568 34.0471 19.2233 34.1694 19.4549L34.1869 19.468ZM28.1141 26.7684C28.149 26.7335 28.1796 26.6985 28.2146 26.668C28.2495 26.633 28.2845 26.6024 28.3151 26.5675C28.9005 25.9515 29.3592 25.2524 29.6345 24.4398C29.6345 24.4049 29.6388 24.3743 29.6432 24.3393C29.6782 24.2913 29.7393 24.2607 29.7262 24.1864C29.7568 24.1383 29.7568 24.0859 29.7437 24.0335C29.783 23.9374 29.8485 23.8456 29.8398 23.732C29.8398 23.6971 29.8398 23.6665 29.8442 23.6316C29.8835 23.5354 29.9534 23.4437 29.9316 23.3301C29.9621 23.2296 29.9621 23.1291 29.9447 23.0286C30.1456 22.2816 30.0277 21.5519 29.8442 20.8267C29.8442 20.7917 29.8442 20.7612 29.8398 20.7262C29.7961 20.5165 29.7568 20.3112 29.6432 20.1233L29.6301 20.0228C29.6388 19.9529 29.5864 19.918 29.5471 19.8699C29.5384 19.835 29.534 19.8044 29.5252 19.7694C29.3898 19.4549 29.2587 19.1359 29.0403 18.865C29.049 18.7864 28.9791 18.7602 28.9398 18.7121C28.8786 18.5854 28.8131 18.4631 28.6995 18.3714C28.6777 18.3495 28.6602 18.3277 28.6384 18.3102C28.599 18.2097 28.5553 18.1136 28.4461 18.0655C28.3806 17.965 28.3194 17.8558 28.1971 17.8121C28.1971 17.7772 28.1796 17.7597 28.1447 17.751C28.1316 17.6592 28.0529 17.6374 27.9874 17.6024C27.8956 17.5107 27.8214 17.4058 27.6947 17.3621C27.6204 17.2791 27.5592 17.183 27.4413 17.1481C27.3888 17.0476 27.2927 16.9995 27.1879 16.9689C27.1704 16.9602 27.1529 16.9558 27.1398 16.9471C27.1267 16.899 27.1005 16.8597 27.0393 16.8728C26.9651 16.8466 26.9301 16.7549 26.8384 16.7549C26.8121 16.733 26.7903 16.7068 26.7641 16.6893C26.0039 16.2917 25.1956 16.0252 24.3393 15.9466C24.2083 15.9335 24.0684 15.8505 23.933 15.9466C23.7801 15.9466 23.6272 15.9466 23.4743 15.9466C23.3913 15.9029 23.3126 15.8723 23.2296 15.9466C23.1291 15.951 23.0286 15.9553 22.9282 15.9597C22.7665 15.9422 22.6267 16.0034 22.4782 16.0471C22.4083 16.0383 22.3427 16.0296 22.2772 16.0646L22.0762 16.1519C22.0413 16.1519 22.0107 16.1607 21.9757 16.165C21.7791 16.1869 21.5913 16.2437 21.4209 16.3485C21.3859 16.3573 21.3553 16.3617 21.3204 16.3704C20.9665 16.5146 20.617 16.6675 20.3068 16.8859C19.9879 17.1175 19.6209 17.301 19.3893 17.6374C19.3718 17.6374 19.3631 17.6374 19.3587 17.6549C19.2408 17.6985 19.1621 17.7772 19.1184 17.8951C19.101 17.8995 19.0966 17.9126 19.101 17.9257C19.0573 17.9476 19.0049 17.9607 18.9743 17.9956C18.616 18.4369 18.2665 18.8782 18.0306 19.4024C18.0262 19.4374 18.0175 19.468 18.0131 19.5029C17.9126 19.599 17.8777 19.7301 17.8296 19.8568C17.8209 19.8917 17.8165 19.9223 17.8078 19.9573C17.7684 20.001 17.716 20.0403 17.7248 20.1102C17.7204 20.1451 17.716 20.1757 17.7117 20.2107C17.668 20.3068 17.6024 20.3985 17.6243 20.5121C17.6243 20.5471 17.6155 20.5777 17.6112 20.6126C17.585 20.6825 17.5194 20.7306 17.5238 20.8136C17.4932 20.8791 17.4976 20.9447 17.5107 21.0146C17.4583 21.1282 17.4451 21.2461 17.4364 21.3684C17.3927 21.5519 17.4015 21.7354 17.4146 21.9189C17.2966 22.1942 17.4015 22.4782 17.4102 22.7534C17.4189 23.116 17.4714 23.4786 17.6155 23.8194C17.6155 23.8544 17.6155 23.885 17.6199 23.9199C17.8384 24.75 18.2097 25.5015 18.7602 26.1612L18.9218 26.3359C19.1053 26.5806 19.3063 26.8078 19.5641 26.9782C19.6121 27.0437 19.6646 27.1005 19.7345 27.1398C19.8087 27.2665 19.9354 27.3277 20.0621 27.3801L20.1277 27.4413C20.1714 27.5112 20.2282 27.5592 20.3155 27.568C20.3898 27.5942 20.4248 27.6859 20.5165 27.6859C21.0146 28.0485 21.5869 28.2277 22.1723 28.3806C22.2073 28.3806 22.2379 28.3806 22.2728 28.385C22.9981 28.5728 23.732 28.6689 24.4748 28.4854C24.5752 28.5029 24.6757 28.5029 24.7762 28.4723C25.2087 28.3893 25.6325 28.2801 26.0301 28.0879C26.0651 28.0791 26.0956 28.0748 26.1306 28.066C26.8252 27.7689 27.4544 27.3714 28.0049 26.8515C28.0398 26.8165 28.0704 26.7859 28.1053 26.751L28.1141 26.7684Z" fill="white"/>
<path d="M0 35.799C0.0218447 35.3141 0.0262136 34.8291 0 34.3442C0 33.8243 0 33.3044 0 32.7845C0.0218447 32.2995 0.0262136 31.8146 0 31.3296C0 30.8272 0 30.3248 0 29.818C0.0349515 29.7349 0.0218447 29.6519 0.0174757 29.5646C0.0961165 29.4684 0.174757 29.3723 0.253398 29.2762C0.310194 29.2456 0.36699 29.215 0.428155 29.1845C0.511165 29.1932 0.57233 29.1582 0.629126 29.1102C1.56845 29.1102 2.50777 29.1102 3.44272 29.1102C3.59563 29.1757 3.74417 29.2413 3.89709 29.3068C3.93204 29.3461 3.96262 29.3811 3.99757 29.4204C4.05437 29.5515 4.05437 29.7044 4.15485 29.8223C4.15922 30.3248 4.16359 30.8272 4.16796 31.3296C4.16796 31.5306 4.16796 31.7359 4.16796 31.9369C4.16359 31.9937 4.15049 32.0505 4.15049 32.1116C4.15049 34.8816 4.15049 37.6558 4.15049 40.4257C4.15049 40.4738 4.15922 40.5262 4.16796 40.5743C4.1199 40.784 4.07621 40.9937 3.96262 41.1816L3.95388 41.1903C3.89709 41.1947 3.8665 41.2296 3.8534 41.282C3.83592 41.2908 3.81845 41.2951 3.80097 41.3039C3.73544 41.3345 3.6699 41.365 3.6 41.3956C3.56505 41.3956 3.5301 41.4 3.49951 41.4044C2.52524 41.4044 1.55534 41.4044 0.581068 41.4044C0.546117 41.4044 0.515534 41.4 0.480583 41.3956C0.266505 41.2995 0.109223 41.1466 0.0174757 40.9325C0.0174757 40.749 0.00873786 40.5612 0.00436893 40.3777C-0.0131068 39.3597 0.0480583 38.3461 0.0131068 37.3282C-0.00436893 36.8214 0.00873786 36.3102 0.00436893 35.8034L0 35.799Z" fill="white"/>
</g>
<defs>
<clipPath id="clip0_71_33">
<rect width="45" height="45.1049" fill="white"/>
</clipPath>
</defs>
</svg>
